{
.appVersion = "895";
DisplayStrings = (
"scozy mugglebe"
);
copyright = "Copyright 2016 Jeremy Tribby. SIL OFL License v1.1.";
date = "2016-07-12 00:27:02 +0000";
designer = "Jeremy Tribby";
designerURL = "http://tribby.com/";
familyName = Barlow;
featurePrefixes = (
{
automatic = 1;
code = "languagesystem DFLT dflt;\012";
name = Languagesystems;
}
);
features = (
{
automatic = 1;
code = "sub hyphen hyphen by hyphen_hyphen.liga;\012";
name = liga;
}
);
fontMaster = (
{
alignmentZones = (
"{800, 16}",
"{700, 10}",
"{500, 6}",
"{0, -10}",
"{-200, -12}"
);
ascender = 800;
capHeight = 700;
customParameters = (
{
name = paramArea;
value = "666";
},
{
name = paramDepth;
value = "8";
},
{
name = paramOver;
value = "0";
}
);
descender = -200;
horizontalStems = (
23,
22
);
id = "262880E7-CFE1-4BDA-902E-E24798F3240A";
userData = {
GSCornerRadius = 8;
GSOffsetHorizontal = 11;
GSOffsetMakeStroke = 1;
GSOffsetVertical = 10;
noodleExtremesAndInflections = 1;
noodleRemoveOverlap = 1;
noodleThickness = "22.0";
};
verticalStems = (
22,
21
);
visible = 1;
weight = Light;
weightValue = 23;
xHeight = 500;
},
{
alignmentZones = (
"{800, 16}",
"{700, 11}",
"{500, 8}",
"{0, -11}",
"{-200, -11}"
);
ascender = 800;
capHeight = 700;
customParameters = (
{
name = paramArea;
value = "400";
},
{
name = paramDepth;
value = "18";
},
{
name = paramOver;
value = "1";
}
);
descender = -200;
horizontalStems = (
117,
122
);
id = "6256A6A1-72B9-4ADD-8383-8893F8BF5D61";
verticalStems = (
119,
100
);
visible = 1;
weight = SemiBold;
weightValue = 119;
xHeight = 500;
},
{
alignmentZones = (
"{800, 16}",
"{700, 11}",
"{500, 9}",
"{0, -11}",
"{-200, -10}"
);
ascender = 800;
capHeight = 700;
customParameters = (
{
name = paramArea;
value = "150";
},
{
name = paramDepth;
value = "20";
},
{
name = paramOver;
value = "2";
}
);
descender = -200;
horizontalStems = (
198,
208
);
id = "4F25946F-63AC-42D6-8D55-01CF6A99025B";
userData = {
GSCornerRadius = 12;
GSOffsetHorizontal = 104;
GSOffsetMakeStroke = 1;

glyphs = (
{
color = 1;
glyphname = A;
lastChange = "2016-10-17 08:59:04 +0000";
layers = (
{
layerId = "262880E7-CFE1-4BDA-902E-E24798F3240A";
paths = (
{
closed = 1;
nodes = (
"154 0 LINE",
"308 656 LINE",
"462 0 LINE",
"484 0 LINE",
"319 700 LINE",
"297 700 LINE",
"132 0 LINE"
);
},
{
closed = 1;
nodes = (
"431 145 LINE",
"431 166 LINE",
"184 166 LINE",
"184 145 LINE"
);
}
);
width = 616;
},
{
layerId = "4F25946F-63AC-42D6-8D55-01CF6A99025B";
paths = (
{
closed = 1;
nodes = (
"186 0 LINE",
"281 450 LINE",
"376 0 LINE",
"599 0 LINE",
"397 700 LINE",
"165 700 LINE",
"-37 0 LINE"
);
},
{
closed = 1;
nodes = (
"431 75 LINE",
"431 210 LINE",
"131 210 LINE",
"131 75 LINE"
);
}
);
width = 562;
},
{
layerId = "6256A6A1-72B9-4ADD-8383-8893F8BF5D61";
paths = (
{
closed = 1;
nodes = (
"213 0 LINE",
"314 527 LINE",
"415 0 LINE",
"546 0 LINE",
"381 700 LINE",
"247 700 LINE",
"82 0 LINE"
);
},
{
closed = 1;
nodes = (
"451 101 LINE",
"451 212 LINE",
"176 212 LINE",
"176 101 LINE"
);
}
);
width = 628;
}
);
unicode = 0041;
},
{
color = 1;
glyphname = B;
lastChange = "2016-10-17 08:59:03 +0000";
layers = (
{
layerId = "262880E7-CFE1-4BDA-902E-E24798F3240A";
paths = (
{
closed = 1;
nodes = (
"313 351 LINE SMOOTH",
"428 351 OFFCURVE",
"499 415 OFFCURVE",
"499 523 CURVE SMOOTH",
"499 631 OFFCURVE",
"428 700 OFFCURVE",
"313 700 CURVE SMOOTH",
"167 700 LINE",
"167 351 LINE"
);
},
{
closed = 1;
nodes = (
"313 0 LINE SMOOTH",
"428 0 OFFCURVE",
"499 71 OFFCURVE",
"499 186 CURVE SMOOTH",
"499 301 OFFCURVE",
"428 372 OFFCURVE",
"313 372 CURVE SMOOTH",
"167 372 LINE",
"167 0 LINE"
);
},
{
closed = 1;
nodes = (
"189 351 LINE",
"313 351 LINE SMOOTH",
"415 351 OFFCURVE",
"477 288 OFFCURVE",
"477 186 CURVE SMOOTH",
"477 84 OFFCURVE",
"415 22 OFFCURVE",
"313 22 CURVE SMOOTH",
"189 22 LINE"
);
},
{
closed = 1;
nodes = (
"189 679 LINE",
"313 679 LINE SMOOTH",
"415 679 OFFCURVE",
"477 618 OFFCURVE",
"477 523 CURVE SMOOTH",
"477 428 OFFCURVE",
"415 372 OFFCURVE",
"313 372 CURVE SMOOTH",
"189 372 LINE"
);
}
);
width = 645;
},
{
layerId = "4F25946F-63AC-42D6-8D55-01CF6A99025B";
paths = (
{
closed = 1;
nodes = (
"291 308 LINE SMOOTH",
"437 308 OFFCURVE",
"535 386 OFFCURVE",
"535 502 CURVE SMOOTH",
"535 621 OFFCURVE",
"435 700 OFFCURVE",
"286 700 CURVE SMOOTH",
"38 700 LINE",
"38 308 LINE"
);
},
{
closed = 1;
nodes = (
"315 0 LINE SMOOTH",
"460 0 OFFCURVE",
"556 82 OFFCURVE",
"556 205 CURVE SMOOTH",
"556 338 OFFCURVE",
"450 426 OFFCURVE",
"290 426 CURVE",
"38 426 LINE",
"38 0 LINE"
);
},
{
closed = 1;
nodes = (
"231 286 LINE",
"296 286 LINE SMOOTH",
"327 286 OFFCURVE",
"347 266 OFFCURVE",
"347 235 CURVE SMOOTH",
"347 203 OFFCURVE",
"326 182 OFFCURVE",
"295 182 CURVE SMOOTH",
"231 182 LINE"
);
},
{
closed = 1;
nodes = (
"231 536 LINE",
"290 536 LINE",
"319 536 OFFCURVE",
"339 517 OFFCURVE",
"339 489 CURVE SMOOTH",
"339 462 OFFCURVE",
"319 444 OFFCURVE",
"290 444 CURVE",
"231 444 LINE"
);
}
);
width = 553;
},
{
layerId = "6256A6A1-72B9-4ADD-8383-8893F8BF5D61";
paths = (
{
closed = 1;
nodes = (
"321 328 LINE SMOOTH",
"452 328 OFFCURVE",
"538 399 OFFCURVE",
"538 512 CURVE SMOOTH",
"538 626 OFFCURVE",
"451 700 OFFCURVE",
"318 700 CURVE SMOOTH",
"117 700 LINE",
"117 328 LINE"
);
},
{
closed = 1;
nodes = (
"334 0 LINE SMOOTH",
"465 0 OFFCURVE",
"549 77 OFFCURVE",
"549 196 CURVE SMOOTH",
"549 321 OFFCURVE",
"459 401 OFFCURVE",
"320 401 CURVE SMOOTH",
"117 401 LINE",
"117 0 LINE"
);
},
{
closed = 1;
nodes = (
"231 316 LINE",
"324 316 LINE SMOOTH",
"387 316 OFFCURVE",
"427 276 OFFCURVE",
"427 212 CURVE SMOOTH",
"427 148 OFFCURVE",
"387 108 OFFCURVE",
"323 108 CURVE SMOOTH",
"231 108 LINE"
);
},
{
closed = 1;
nodes = (
"231 602 LINE",
"320 602 LINE SMOOTH",
"383 602 OFFCURVE",
"423 564 OFFCURVE",
"423 505 CURVE SMOOTH",
"423 446 OFFCURVE",
"383 411 OFFCURVE",
"320 411 CURVE SMOOTH",
"231 411 LINE"
);
}
);
width = 642;
}
);
unicode = 0042;
},
{
color = 1;
glyphname = C;
lastChange = "2016-10-17 08:59:03 +0000";
layers = (
{
layerId = "262880E7-CFE1-4BDA-902E-E24798F3240A";
paths = (
{
closed = 1;
nodes = (
"419 -9 OFFCURVE",
"481 50 OFFCURVE",
"481 150 CURVE SMOOTH",
"481 152 LINE",
"459 152 LINE",
"459 150 LINE SMOOTH",
"459 64 OFFCURVE",
"407 11 OFFCURVE",
"320 11 CURVE SMOOTH",
"233 11 OFFCURVE",
"181 64 OFFCURVE",
"181 150 CURVE SMOOTH",
"181 550 LINE SMOOTH",
"181 637 OFFCURVE",
"235 690 OFFCURVE",
"320 690 CURVE SMOOTH",
"405 690 OFFCURVE",
"459 637 OFFCURVE",
"459 550 CURVE SMOOTH",
"459 548 LINE",
"481 548 LINE",
"481 550 LINE SMOOTH",
"481 650 OFFCURVE",
"419 709 OFFCURVE",
"320 709 CURVE SMOOTH",
"221 709 OFFCURVE",
"159 650 OFFCURVE",
"159 550 CURVE SMOOTH",
"159 150 LINE SMOOTH",
"159 50 OFFCURVE",
"221 -9 OFFCURVE",
"320 -9 CURVE SMOOTH"
);
}
);
width = 619;
},
{
layerId = "4F25946F-63AC-42D6-8D55-01CF6A99025B";
paths = (
{
closed = 1;
nodes = (
"427 -10 OFFCURVE",
"529 67 OFFCURVE",
"529 183 CURVE SMOOTH",
"529 278 LINE",
"317 278 LINE",
"317 223 LINE SMOOTH",
"317 196 OFFCURVE",
"299 178 OFFCURVE",
"273 178 CURVE SMOOTH",
"247 178 OFFCURVE",
"229 196 OFFCURVE",
"229 223 CURVE SMOOTH",
"229 477 LINE SMOOTH",
"229 504 OFFCURVE",
"247 522 OFFCURVE",
"273 522 CURVE SMOOTH",
"299 522 OFFCURVE",
"317 504 OFFCURVE",
"317 477 CURVE SMOOTH",
"317 422 LINE",
"529 422 LINE",
"529 517 LINE SMOOTH",
"529 633 OFFCURVE",
"427 710 OFFCURVE",
"273 710 CURVE SMOOTH",
"119 710 OFFCURVE",
"17 633 OFFCURVE",
"17 517 CURVE SMOOTH",
"17 183 LINE SMOOTH",
"17 67 OFFCURVE",
"119 -10 OFFCURVE",
"273 -10 CURVE SMOOTH"
);
}
);
width = 534;
},
{
layerId = "6256A6A1-72B9-4ADD-8383-8893F8BF5D61";
paths = (
{
closed = 1;
nodes = (
"448 -10 OFFCURVE",
"531 59 OFFCURVE",
"531 168 CURVE SMOOTH",
"531 220 LINE",
"407 220 LINE",
"407 189 LINE SMOOTH",
"407 135 OFFCURVE",
"373 101 OFFCURVE",
"319 101 CURVE SMOOTH",
"265 101 OFFCURVE",
"231 135 OFFCURVE",
"231 189 CURVE SMOOTH",
"231 511 LINE SMOOTH",
"231 566 OFFCURVE",
"266 600 OFFCURVE",
"319 600 CURVE SMOOTH",
"372 600 OFFCURVE",
"407 566 OFFCURVE",
"407 511 CURVE SMOOTH",
"407 480 LINE",
"531 480 LINE",
"531 532 LINE SMOOTH",
"531 641 OFFCURVE",
"448 710 OFFCURVE",
"319 710 CURVE SMOOTH",
"191 710 OFFCURVE",
"107 641 OFFCURVE",
"107 532 CURVE SMOOTH",
"107 168 LINE SMOOTH",
"107 59 OFFCURVE",
"191 -10 OFFCURVE",
"319 -10 CURVE SMOOTH"
);
}
);
width = 624;
}
);
unicode = 0043;
},
{
color = 1;
glyphname = D;
lastChange = "2016-10-17 08:59:04 +0000";
layers = (
{
layerId = "262880E7-CFE1-4BDA-902E-E24798F3240A";
paths = (
{
closed = 1;
nodes = (
"328 0 LINE SMOOTH",
"428 0 OFFCURVE",
"489 61 OFFCURVE",
"489 161 CURVE SMOOTH",
"489 539 LINE SMOOTH",
"489 639 OFFCURVE",
"428 700 OFFCURVE",
"328 700 CURVE SMOOTH",
"167 700 LINE",
"167 0 LINE"
);
},
{
closed = 1;
nodes = (
"189 679 LINE",
"328 679 LINE SMOOTH",
"414 679 OFFCURVE",
"467 626 OFFCURVE",
"467 539 CURVE SMOOTH",
"467 161 LINE SMOOTH",
"467 75 OFFCURVE",
"414 22 OFFCURVE",
"328 22 CURVE SMOOTH",
"189 22 LINE"
);
}
);
width = 647;
},
{
layerId = "4F25946F-63AC-42D6-8D55-01CF6A99025B";
paths = (
{
closed = 1;
nodes = (
"325 0 LINE SMOOTH",
"456 0 OFFCURVE",
"537 73 OFFCURVE",
"537 193 CURVE SMOOTH",
"537 507 LINE SMOOTH",
"537 627 OFFCURVE",
"456 700 OFFCURVE",
"325 700 CURVE SMOOTH",
"38 700 LINE",
"38 0 LINE"
);
},
{
closed = 1;
nodes = (
"246 526 LINE",
"281 526 LINE SMOOTH",
"308 526 OFFCURVE",
"325 509 OFFCURVE",
"325 481 CURVE SMOOTH",
"325 219 LINE SMOOTH",
"325 191 OFFCURVE",
"308 174 OFFCURVE",
"281 174 CURVE SMOOTH",
"246 174 LINE"
);
}
);
width = 555;
},
{
layerId = "6256A6A1-72B9-4ADD-8383-8893F8BF5D61";
paths = (
{
closed = 1;
nodes = (
"335 0 LINE SMOOTH",
"452 0 OFFCURVE",
"524 67 OFFCURVE",
"524 178 CURVE SMOOTH",
"524 522 LINE SMOOTH",
"524 633 OFFCURVE",
"452 700 OFFCURVE",
"335 700 CURVE SMOOTH",
"117 700 LINE",
"117 0 LINE"
);
},
{
closed = 1;
nodes = (
"239 597 LINE",
"312 597 LINE SMOOTH",
"366 597 OFFCURVE",
"400 563 OFFCURVE",
"400 508 CURVE SMOOTH",
"400 192 LINE SMOOTH",
"400 137 OFFCURVE",
"366 104 OFFCURVE",
"312 104 CURVE SMOOTH",
"239 104 LINE"
);
}
);
width = 630;
}
);
unicode = 0044;
},
{
color = 1;
glyphname = E;
lastChange = "2016-10-17 08:59:04 +0000";
layers = (
{
layerId = "262880E7-CFE1-4BDA-902E-E24798F3240A";
paths = (
{
closed = 1;
nodes = (
"488 0 LINE",
"488 22 LINE",
"189 22 LINE",
"189 679 LINE",
"488 679 LINE",
"488 700 LINE",
"167 700 LINE",
"167 0 LINE"
);
},
{
closed = 1;
nodes = (
"383 340 LINE",
"383 361 LINE",
"178 361 LINE",
"178 340 LINE"
);
}
);
width = 619;
},
{
layerId = "4F25946F-63AC-42D6-8D55-01CF6A99025B";
paths = (
{
closed = 1;
nodes = (
"500 0 LINE",
"500 188 LINE",
"246 188 LINE",
"246 512 LINE",
"500 512 LINE",
"500 700 LINE",
"38 700 LINE",
"38 0 LINE"
);
},
{
closed = 1;
nodes = (
"390 266 LINE",
"390 434 LINE",
"160 434 LINE",
"160 266 LINE"
);
}
);
width = 501;
},
{
layerId = "6256A6A1-72B9-4ADD-8383-8893F8BF5D61";
paths = (
{
closed = 1;
nodes = (
"506 0 LINE",
"506 111 LINE",
"241 111 LINE",
"241 589 LINE",
"506 589 LINE",
"506 700 LINE",
"117 700 LINE",
"117 0 LINE"
);
},
{
closed = 1;
nodes = (
"398 300 LINE",
"398 400 LINE",
"189 400 LINE",
"189 300 LINE"
);
}
);
width = 597;
}
);
unicode = 0045;
},
{
color = 1;
glyphname = F;
lastChange = "2016-10-17 08:59:03 +0000";
layers = (
{
layerId = "262880E7-CFE1-4BDA-902E-E24798F3240A";
paths = (
{
closed = 1;
nodes = (
"189 0 LINE",
"189 679 LINE",
"488 679 LINE",
"488 700 LINE",
"167 700 LINE",
"167 0 LINE"
);
},
{
closed = 1;
nodes = (
"383 340 LINE",
"383 361 LINE",
"178 361 LINE",
"178 340 LINE"
);
}
);
width = 617;
},
{
layerId = "4F25946F-63AC-42D6-8D55-01CF6A99025B";
paths = (
{
closed = 1;
nodes = (
"246 0 LINE",
"246 512 LINE",
"514 512 LINE",
"514 700 LINE",
"38 700 LINE",
"38 0 LINE"
);
},
{
closed = 1;
nodes = (
"402 266 LINE",
"402 434 LINE",
"159 434 LINE",
"159 266 LINE"
);
}
);
width = 484;
},
{
layerId = "6256A6A1-72B9-4ADD-8383-8893F8BF5D61";
paths = (
{
closed = 1;
nodes = (
"243 0 LINE",
"243 589 LINE",
"504 589 LINE",
"504 700 LINE",
"117 700 LINE",
"117 0 LINE"
);
},
{
closed = 1;
nodes = (
"396 300 LINE",
"396 400 LINE",
"191 400 LINE",
"191 300 LINE"
);
}
);
width = 588;
}
);
unicode = 0046;
},
{
color = 1;
glyphname = G;
lastChange = "2016-10-17 08:59:04 +0000";
layers = (
{
layerId = "262880E7-CFE1-4BDA-902E-E24798F3240A";
paths = (
{
closed = 1;
nodes = (
"419 -9 OFFCURVE",
"481 51 OFFCURVE",
"481 150 CURVE",
"481 361 LINE",
"320 361 LINE",
"320 340 LINE",
"459 340 LINE",
"459 150 LINE",
"459 63 OFFCURVE",
"407 11 OFFCURVE",
"320 11 CURVE SMOOTH",
"233 11 OFFCURVE",
"181 63 OFFCURVE",
"181 150 CURVE",
"181 550 LINE",
"181 637 OFFCURVE",
"233 690 OFFCURVE",
"320 690 CURVE SMOOTH",
"407 690 OFFCURVE",
"459 637 OFFCURVE",
"459 550 CURVE",
"481 550 LINE",
"481 649 OFFCURVE",
"419 709 OFFCURVE",
"320 709 CURVE SMOOTH",
"221 709 OFFCURVE",
"159 649 OFFCURVE",
"159 550 CURVE",
"159 150 LINE",
"159 51 OFFCURVE",
"221 -9 OFFCURVE",
"320 -9 CURVE SMOOTH"
);
}
);
width = 631;
},
{
layerId = "4F25946F-63AC-42D6-8D55-01CF6A99025B";
paths = (
{
closed = 1;
nodes = (
"421 -10 OFFCURVE",
"523 88 OFFCURVE",
"523 234 CURVE SMOOTH",
"523 400 LINE",
"267 400 LINE",
"267 270 LINE",
"311 270 LINE",
"311 234 LINE SMOOTH",
"311 200 OFFCURVE",
"293 178 OFFCURVE",
"267 178 CURVE SMOOTH",
"241 178 OFFCURVE",
"223 200 OFFCURVE",
"223 234 CURVE SMOOTH",
"223 466 LINE SMOOTH",
"223 500 OFFCURVE",
"241 522 OFFCURVE",
"267 522 CURVE SMOOTH",
"293 522 OFFCURVE",
"311 500 OFFCURVE",
"311 466 CURVE",
"523 466 LINE",
"523 612 OFFCURVE",
"421 710 OFFCURVE",
"267 710 CURVE SMOOTH",
"113 710 OFFCURVE",
"11 612 OFFCURVE",
"11 466 CURVE SMOOTH",
"11 234 LINE SMOOTH",
"11 88 OFFCURVE",
"113 -10 OFFCURVE",
"267 -10 CURVE SMOOTH"
);
}
);
width = 531;
},
{
layerId = "6256A6A1-72B9-4ADD-8383-8893F8BF5D61";
paths = (
{
closed = 1;
nodes = (
"445 -9 OFFCURVE",
"529 71 OFFCURVE",
"529 195 CURVE",
"529 382 LINE",
"317 382 LINE",
"317 285 LINE",
"405 285 LINE",
"405 195 LINE",
"405 136 OFFCURVE",
"371 100 OFFCURVE",
"317 100 CURVE SMOOTH",
"263 100 OFFCURVE",
"229 136 OFFCURVE",
"229 195 CURVE",
"229 505 LINE",
"229 564 OFFCURVE",
"263 600 OFFCURVE",
"317 600 CURVE SMOOTH",
"371 600 OFFCURVE",
"405 564 OFFCURVE",
"405 505 CURVE",
"529 505 LINE",
"529 629 OFFCURVE",
"445 709 OFFCURVE",
"317 709 CURVE SMOOTH",
"189 709 OFFCURVE",
"105 629 OFFCURVE",
"105 505 CURVE",
"105 195 LINE",
"105 71 OFFCURVE",
"189 -9 OFFCURVE",
"317 -9 CURVE SMOOTH"
);
}
);
width = 628;
}
);
unicode = 0047;
},
{
color = 1;
glyphname = H;
lastChange = "2016-10-17 08:59:04 +0000";
layers = (
{
layerId = "262880E7-CFE1-4BDA-902E-E24798F3240A";
paths = (
{
closed = 1;
nodes = (
"489 0 LINE",
"489 700 LINE",
"467 700 LINE",
"467 0 LINE"
);
},
{
closed = 1;
nodes = (
"189 0 LINE",
"189 700 LINE",
"167 700 LINE",
"167 0 LINE"
);
},
{
closed = 1;
nodes = (
"472 340 LINE",
"472 361 LINE",
"184 361 LINE",
"184 340 LINE"
);
}
);
width = 656;
},
{
layerId = "4F25946F-63AC-42D6-8D55-01CF6A99025B";
paths = (
{
closed = 1;
nodes = (
"546 0 LINE",
"546 700 LINE",
"336 700 LINE",
"336 0 LINE"
);
},
{
closed = 1;
nodes = (
"248 0 LINE",
"248 700 LINE",
"38 700 LINE",
"38 0 LINE"
);
},
{
closed = 1;
nodes = (
"352 246 LINE",
"352 434 LINE",
"232 434 LINE",
"232 246 LINE"
);
}
);
width = 584;
},
{
layerId = "6256A6A1-72B9-4ADD-8383-8893F8BF5D61";
paths = (
{
closed = 1;
nodes = (
"539 0 LINE",
"539 700 LINE",
"416 700 LINE",
"416 0 LINE"
);
},
{
closed = 1;
nodes = (
"240 0 LINE",
"240 700 LINE",
"117 700 LINE",
"117 0 LINE"
);
},
{
closed = 1;
nodes = (
"427 290 LINE",
"427 400 LINE",
"229 400 LINE",
"229 290 LINE"
);
}
);
width = 656;
}
);
unicode = 0048;
},
{
color = 1;
glyphname = I;
lastChange = "2016-10-17 08:59:04 +0000";
layers = (
{
layerId = "262880E7-CFE1-4BDA-902E-E24798F3240A";
paths = (
{
closed = 1;
nodes = (
"189 0 LINE",
"189 700 LINE",
"167 700 LINE",
"167 0 LINE"
);
}
);
width = 356;
},
{
layerId = "4F25946F-63AC-42D6-8D55-01CF6A99025B";
paths = (
{
closed = 1;
nodes = (
"240 0 LINE",
"240 700 LINE",
"38 700 LINE",
"38 0 LINE"
);
}
);
width = 278;
},
{
layerId = "6256A6A1-72B9-4ADD-8383-8893F8BF5D61";
paths = (
{
closed = 1;
nodes = (
"236 0 LINE",
"236 700 LINE",
"117 700 LINE",
"117 0 LINE"
);
}
);
width = 353;
}
);
unicode = 0049;
},
{
color = 1;
glyphname = J;
lastChange = "2016-10-17 08:59:04 +0000";
layers = (
{
layerId = "262880E7-CFE1-4BDA-902E-E24798F3240A";
paths = (
{
closed = 1;
nodes = (
"391 -11 OFFCURVE",
"451 50 OFFCURVE",
"451 150 CURVE SMOOTH",
"451 700 LINE",
"429 700 LINE",
"429 150 LINE",
"429 64 OFFCURVE",
"377 11 OFFCURVE",
"293 11 CURVE SMOOTH",
"209 11 OFFCURVE",
"157 64 OFFCURVE",
"157 150 CURVE SMOOTH",
"157 195 LINE",
"135 195 LINE",
"135 150 LINE SMOOTH",
"135 50 OFFCURVE",
"195 -11 OFFCURVE",
"293 -11 CURVE SMOOTH"
);
}
);
width = 614;
},
{
layerId = "4F25946F-63AC-42D6-8D55-01CF6A99025B";
paths = (
{
closed = 1;
nodes = (
"373 -10 OFFCURVE",
"473 88 OFFCURVE",
"473 235 CURVE",
"468 702 LINE",
"256 700 LINE",
"261 233 LINE",
"261 200 OFFCURVE",
"245 178 OFFCURVE",
"222 178 CURVE SMOOTH",
"199 178 OFFCURVE",
"183 200 OFFCURVE",
"183 234 CURVE SMOOTH",
"183 290 LINE",
"-29 290 LINE",
"-29 234 LINE SMOOTH",
"-29 88 OFFCURVE",
"71 -10 OFFCURVE",
"222 -10 CURVE SMOOTH"
);
}
);
width = 496;
},
{
layerId = "6256A6A1-72B9-4ADD-8383-8893F8BF5D61";
paths = (
{
closed = 1;
nodes = (
"421 -10 OFFCURVE",
"503 70 OFFCURVE",
"502 196 CURVE SMOOTH",
"499 701 LINE",
"376 700 LINE",
"378 195 LINE",
"378 137 OFFCURVE",
"346 101 OFFCURVE",
"294 101 CURVE SMOOTH",
"243 101 OFFCURVE",
"210 137 OFFCURVE",
"210 195 CURVE SMOOTH",
"210 246 LINE",
"86 246 LINE",
"86 195 LINE SMOOTH",
"86 70 OFFCURVE",
"168 -10 OFFCURVE",
"294 -10 CURVE SMOOTH"
);
}
);
width = 612;
}
);
unicode = 004A;
},
{
color = 1;
glyphname = K;
lastChange = "2016-10-17 08:59:04 +0000";
layers = (
{
layerId = "262880E7-CFE1-4BDA-902E-E24798F3240A";
paths = (
{
closed = 1;
nodes = (
"499 0 LINE",
"203 350 LINE",
"499 700 LINE",
"473 700 LINE",
"175 350 LINE",
"473 0 LINE"
);
},
{
closed = 1;
nodes = (
"189 0 LINE",
"189 700 LINE",
"167 700 LINE",
"167 0 LINE"
);
}
);
width = 629;
},
{
layerId = "4F25946F-63AC-42D6-8D55-01CF6A99025B";
paths = (
{
closed = 1;
nodes = (
"569 0 LINE",
"394 350 LINE",
"566 700 LINE",
"316 700 LINE",
"176 350 LINE",
"316 0 LINE"
);
},
{
closed = 1;
nodes = (
"246 0 LINE",
"246 700 LINE",
"38 700 LINE",
"38 0 LINE"
);
}
);
width = 536;
},
{
layerId = "6256A6A1-72B9-4ADD-8383-8893F8BF5D61";
paths = (
{
closed = 1;
nodes = (
"550 0 LINE",
"308 350 LINE",
"548 700 LINE",
"399 700 LINE",
"165 350 LINE",
"399 0 LINE"
);
},
{
closed = 1;
nodes = (
"240 0 LINE",
"240 700 LINE",
"117 700 LINE",
"117 0 LINE"
);
}
);
width = 630;
}
);
unicode = 004B;
},
{
color = 1;
glyphname = L;
lastChange = "2016-10-17 08:59:04 +0000";
layers = (
{
layerId = "262880E7-CFE1-4BDA-902E-E24798F3240A";
paths = (
{
closed = 1;
nodes = (
"478 0 LINE",
"478 22 LINE",
"189 22 LINE",
"189 700 LINE",
"167 700 LINE",
"167 0 LINE"
);
}
);
width = 607;
},
{
layerId = "4F25946F-63AC-42D6-8D55-01CF6A99025B";
paths = (
{
closed = 1;
nodes = (
"495 0 LINE",
"495 192 LINE",
"246 192 LINE",
"246 700 LINE",
"38 700 LINE",
"38 0 LINE"
);
}
);
width = 466;
},
{
layerId = "6256A6A1-72B9-4ADD-8383-8893F8BF5D61";
paths = (
{
closed = 1;
nodes = (
"507 0 LINE",
"507 113 LINE",
"239 113 LINE",
"239 700 LINE",
"117 700 LINE",
"117 0 LINE"
);
}
);
width = 591;
}
);
unicode = 004C;
},
{
color = 1;
glyphname = M;
lastChange = "2016-10-17 08:59:04 +0000";
layers = (
{
layerId = "262880E7-CFE1-4BDA-902E-E24798F3240A";
paths = (
{
closed = 1;
nodes = (
"186 0 LINE",
"189 655 LINE",
"346 324 LINE",
"504 655 LINE",
"504 0 LINE",
"525 0 LINE",
"525 700 LINE",
"503 700 LINE",
"346 372 LINE",
"189 700 LINE",
"167 700 LINE",
"167 0 LINE"
);
}
);
width = 692;
},
{
layerId = "4F25946F-63AC-42D6-8D55-01CF6A99025B";
paths = (
{
closed = 1;
nodes = (
"250 0 LINE",
"250 364 LINE",
"332 232 LINE",
"414 364 LINE",
"414 0 LINE",
"626 0 LINE",
"626 698 LINE",
"420 698 LINE",
"332 522 LINE",
"241 702 LINE",
"38 702 LINE",
"38 0 LINE"
);
}
);
width = 664;
},
{
layerId = "6256A6A1-72B9-4ADD-8383-8893F8BF5D61";
paths = (
{
closed = 1;
nodes = (
"239 0 LINE",
"241 468 LINE",
"357 254 LINE",
"475 468 LINE",
"475 0 LINE",
"598 0 LINE",
"598 699 LINE",
"477 699 LINE",
"357 448 LINE",
"235 701 LINE",
"117 701 LINE",
"117 0 LINE"
);
}
);
width = 715;
}
);
unicode = 004D;
},
{
color = 1;
glyphname = N;
lastChange = "2016-10-17 08:59:05 +0000";
layers = (
{
layerId = "262880E7-CFE1-4BDA-902E-E24798F3240A";
paths = (
{
closed = 1;
nodes = (
"189 0 LINE",
"189 647 LINE",
"466 0 LINE",
"489 0 LINE",
"489 700 LINE",
"467 700 LINE",
"467 53 LINE",
"190 700 LINE",
"167 700 LINE",
"167 0 LINE"
);
}
);
width = 656;
},
{
layerId = "4F25946F-63AC-42D6-8D55-01CF6A99025B";
paths = (
{
closed = 1;
nodes = (
"238 0 LINE",
"241 269 LINE",
"389 0 LINE",
"553 0 LINE",
"553 700 LINE",
"356 700 LINE",
"356 404 LINE",
"202 700 LINE",
"38 700 LINE",
"38 0 LINE"
);
}
);
width = 591;
},
{
layerId = "6256A6A1-72B9-4ADD-8383-8893F8BF5D61";
paths = (
{
closed = 1;
nodes = (
"235 0 LINE",
"237 393 LINE",
"444 0 LINE",
"543 0 LINE",
"543 700 LINE",
"427 700 LINE",
"427 284 LINE",
"216 700 LINE",
"117 700 LINE",
"117 0 LINE"
);
}
);
width = 660;
}
);
unicode = 004E;
},
{
color = 1;
glyphname = O;
lastChange = "2016-10-17 08:59:04 +0000";
layers = (
{
layerId = "262880E7-CFE1-4BDA-902E-E24798F3240A";
paths = (
{
closed = 1;
nodes = (
"408 -9 OFFCURVE",
"480 60 OFFCURVE",
"480 150 CURVE SMOOTH",
"480 550 LINE SMOOTH",
"480 640 OFFCURVE",
"408 709 OFFCURVE",
"319 709 CURVE SMOOTH",
"230 709 OFFCURVE",
"158 640 OFFCURVE",
"158 550 CURVE SMOOTH",
"158 150 LINE SMOOTH",
"158 60 OFFCURVE",
"230 -9 OFFCURVE",
"319 -9 CURVE SMOOTH"
);
},
{
closed = 1;
nodes = (
"240 11 OFFCURVE",
"180 72 OFFCURVE",
"180 150 CURVE SMOOTH",
"180 550 LINE SMOOTH",
"180 629 OFFCURVE",
"242 690 OFFCURVE",
"319 690 CURVE SMOOTH",
"396 690 OFFCURVE",
"458 629 OFFCURVE",
"458 550 CURVE SMOOTH",
"458 150 LINE SMOOTH",
"458 72 OFFCURVE",
"398 11 OFFCURVE",
"319 11 CURVE SMOOTH"
);
}
);
width = 638;
},
{
layerId = "4F25946F-63AC-42D6-8D55-01CF6A99025B";
paths = (
{
closed = 1;
nodes = (
"427 -10 OFFCURVE",
"531 87 OFFCURVE",
"531 233 CURVE SMOOTH",
"531 467 LINE SMOOTH",
"531 613 OFFCURVE",
"427 710 OFFCURVE",
"271 710 CURVE SMOOTH",
"115 710 OFFCURVE",
"11 613 OFFCURVE",
"11 467 CURVE SMOOTH",
"11 233 LINE SMOOTH",
"11 87 OFFCURVE",
"115 -10 OFFCURVE",
"271 -10 CURVE SMOOTH"
);
},
{
closed = 1;
nodes = (
"242 174 OFFCURVE",
"223 194 OFFCURVE",
"223 223 CURVE SMOOTH",
"223 477 LINE SMOOTH",
"223 506 OFFCURVE",
"242 526 OFFCURVE",
"271 526 CURVE SMOOTH",
"300 526 OFFCURVE",
"319 506 OFFCURVE",
"319 477 CURVE SMOOTH",
"319 223 LINE SMOOTH",
"319 194 OFFCURVE",
"300 174 OFFCURVE",
"271 174 CURVE SMOOTH"
);
}
);
width = 542;
},
{
layerId = "6256A6A1-72B9-4ADD-8383-8893F8BF5D61";
paths = (
{
closed = 1;
nodes = (
"444 -10 OFFCURVE",
"533 74 OFFCURVE",
"533 195 CURVE SMOOTH",
"533 505 LINE SMOOTH",
"533 626 OFFCURVE",
"444 710 OFFCURVE",
"319 710 CURVE SMOOTH",
"194 710 OFFCURVE",
"105 626 OFFCURVE",
"105 505 CURVE SMOOTH",
"105 195 LINE SMOOTH",
"105 74 OFFCURVE",
"194 -10 OFFCURVE",
"319 -10 CURVE SMOOTH"
);
},
{
closed = 1;
nodes = (
"267 98 OFFCURVE",
"229 137 OFFCURVE",
"229 189 CURVE SMOOTH",
"229 511 LINE SMOOTH",
"229 563 OFFCURVE",
"268 602 OFFCURVE",
"319 602 CURVE SMOOTH",
"370 602 OFFCURVE",
"409 563 OFFCURVE",
"409 511 CURVE SMOOTH",
"409 189 LINE SMOOTH",
"409 137 OFFCURVE",
"371 98 OFFCURVE",
"319 98 CURVE SMOOTH"
);
}
);
width = 638;
}
);
unicode = 004F;
},
{
color = 1;
glyphname = P;
lastChange = "2016-10-17 08:59:05 +0000";
layers = (
{
layerId = "262880E7-CFE1-4BDA-902E-E24798F3240A";
paths = (
{
closed = 1;
nodes = (
"189 0 LINE",
"189 679 LINE",
"313 679 LINE SMOOTH",
"413 679 OFFCURVE",
"474 616 OFFCURVE",
"474 513 CURVE SMOOTH",
"474 409 OFFCURVE",
"413 346 OFFCURVE",
"313 346 CURVE SMOOTH",
"184 346 LINE",
"184 324 LINE",
"313 325 LINE SMOOTH",
"426 326 OFFCURVE",
"496 397 OFFCURVE",
"496 512 CURVE SMOOTH",
"496 629 OFFCURVE",
"426 700 OFFCURVE",
"313 700 CURVE SMOOTH",
"167 700 LINE",
"167 0 LINE"
);
}
);
width = 633;
},
{
layerId = "4F25946F-63AC-42D6-8D55-01CF6A99025B";
paths = (
{
closed = 1;
nodes = (
"250 0 LINE",
"250 512 LINE",
"279 512 LINE SMOOTH",
"308 512 OFFCURVE",
"328 492 OFFCURVE",
"328 462 CURVE SMOOTH",
"328 432 OFFCURVE",
"308 412 OFFCURVE",
"279 412 CURVE SMOOTH",
"234 412 LINE",
"234 233 LINE",
"318 233 LINE SMOOTH",
"451 233 OFFCURVE",
"540 326 OFFCURVE",
"540 465 CURVE SMOOTH",
"540 606 OFFCURVE",
"448 700 OFFCURVE",
"309 700 CURVE SMOOTH",
"38 700 LINE",
"38 0 LINE"
);
}
);
width = 519;
},
{
layerId = "6256A6A1-72B9-4ADD-8383-8893F8BF5D61";
paths = (
{
closed = 1;
nodes = (
"241 0 LINE",
"241 589 LINE",
"314 589 LINE SMOOTH",
"376 589 OFFCURVE",
"415 549 OFFCURVE",
"415 486 CURVE SMOOTH",
"415 421 OFFCURVE",
"376 381 OFFCURVE",
"314 381 CURVE SMOOTH",
"230 381 LINE",
"230 275 LINE",
"335 276 LINE SMOOTH",
"459 277 OFFCURVE",
"539 359 OFFCURVE",
"539 487 CURVE SMOOTH",
"539 617 OFFCURVE",
"457 700 OFFCURVE",
"330 700 CURVE SMOOTH",
"117 700 LINE",
"117 0 LINE"
);
}
);
width = 627;
}
);
unicode = 0050;
},
{
color = 1;
glyphname = Q;
lastChange = "2016-10-17 08:59:03 +0000";
layers = (
{
layerId = "262880E7-CFE1-4BDA-902E-E24798F3240A";
paths = (
{
closed = 1;
nodes = (
"408 -11 OFFCURVE",
"480 60 OFFCURVE",
"480 150 CURVE SMOOTH",
"480 550 LINE SMOOTH",
"480 640 OFFCURVE",
"408 711 OFFCURVE",
"319 711 CURVE SMOOTH",
"230 711 OFFCURVE",
"158 640 OFFCURVE",
"158 550 CURVE SMOOTH",
"158 150 LINE SMOOTH",
"158 60 OFFCURVE",
"230 -11 OFFCURVE",
"319 -11 CURVE SMOOTH"
);
},
{
closed = 1;
nodes = (
"497 -41 LINE",
"288 11 LINE",
"283 -7 LINE",
"490 -65 LINE"
);
},
{
closed = 1;
nodes = (
"240 11 OFFCURVE",
"180 72 OFFCURVE",
"180 150 CURVE SMOOTH",
"180 550 LINE SMOOTH",
"180 629 OFFCURVE",
"242 690 OFFCURVE",
"319 690 CURVE SMOOTH",
"396 690 OFFCURVE",
"458 629 OFFCURVE",
"458 550 CURVE SMOOTH",
"458 150 LINE SMOOTH",
"458 72 OFFCURVE",
"398 11 OFFCURVE",
"319 11 CURVE SMOOTH"
);
}
);
width = 639;
},
{
layerId = "4F25946F-63AC-42D6-8D55-01CF6A99025B";
paths = (
{
closed = 1;
nodes = (
"422 -10 OFFCURVE",
"524 87 OFFCURVE",
"524 233 CURVE SMOOTH",
"524 467 LINE SMOOTH",
"524 613 OFFCURVE",
"422 710 OFFCURVE",
"268 710 CURVE SMOOTH",
"114 710 OFFCURVE",
"12 613 OFFCURVE",
"12 467 CURVE SMOOTH",
"12 233 LINE SMOOTH",
"12 87 OFFCURVE",
"114 -10 OFFCURVE",
"268 -10 CURVE SMOOTH"
);
},
{
closed = 1;
nodes = (
"540 113 LINE",
"216 118 LINE",
"216 -6 LINE",
"532 -43 LINE"
);
},
{
closed = 1;
nodes = (
"242 178 OFFCURVE",
"224 196 OFFCURVE",
"224 223 CURVE SMOOTH",
"224 477 LINE SMOOTH",
"224 504 OFFCURVE",
"242 522 OFFCURVE",
"268 522 CURVE SMOOTH",
"294 522 OFFCURVE",
"312 504 OFFCURVE",
"312 477 CURVE SMOOTH",
"312 223 LINE SMOOTH",
"312 196 OFFCURVE",
"294 178 OFFCURVE",
"268 178 CURVE SMOOTH"
);
}
);
width = 551;
},
{
layerId = "6256A6A1-72B9-4ADD-8383-8893F8BF5D61";
paths = (
{
closed = 1;
nodes = (
"441 -10 OFFCURVE",
"529 74 OFFCURVE",
"529 195 CURVE SMOOTH",
"529 505 LINE SMOOTH",
"529 626 OFFCURVE",
"441 710 OFFCURVE",
"317 710 CURVE SMOOTH",
"193 710 OFFCURVE",
"105 626 OFFCURVE",
"105 505 CURVE SMOOTH",
"105 195 LINE SMOOTH",
"105 74 OFFCURVE",
"193 -10 OFFCURVE",
"317 -10 CURVE SMOOTH"
);
},
{
closed = 1;
nodes = (
"545 42 LINE",
"275 68 LINE",
"273 -6 LINE",
"538 -53 LINE"
);
},
{
closed = 1;
nodes = (
"267 101 OFFCURVE",
"229 139 OFFCURVE",
"229 189 CURVE SMOOTH",
"229 511 LINE SMOOTH",
"229 562 OFFCURVE",
"267 600 OFFCURVE",
"317 600 CURVE SMOOTH",
"367 600 OFFCURVE",
"405 562 OFFCURVE",
"405 511 CURVE SMOOTH",
"405 189 LINE SMOOTH",
"405 139 OFFCURVE",
"368 101 OFFCURVE",
"317 101 CURVE SMOOTH"
);
}
);
width = 641;
}
);
unicode = 0051;
},
{
color = 1;
glyphname = R;
lastChange = "2016-10-17 08:59:05 +0000";
layers = (
{
layerId = "262880E7-CFE1-4BDA-902E-E24798F3240A";
paths = (
{
closed = 1;
nodes = (
"189 0 LINE",
"189 679 LINE",
"316 679 LINE SMOOTH",
"416 679 OFFCURVE",
"477 616 OFFCURVE",
"477 512 CURVE SMOOTH",
"477 408 OFFCURVE",
"416 344 OFFCURVE",
"316 344 CURVE SMOOTH",
"184 344 LINE",
"184 322 LINE",
"316 323 LINE SMOOTH",
"429 324 OFFCURVE",
"499 395 OFFCURVE",
"499 511 CURVE SMOOTH",
"499 628 OFFCURVE",
"429 700 OFFCURVE",
"316 700 CURVE SMOOTH",
"167 700 LINE",
"167 0 LINE"
);
},
{
closed = 1;
nodes = (
"457 0 LINE",
"338 340 LINE",
"318 332 LINE",
"433 0 LINE"
);
}
);
width = 636;
},
{
layerId = "4F25946F-63AC-42D6-8D55-01CF6A99025B";
paths = (
{
closed = 1;
nodes = (
"240 0 LINE",
"240 512 LINE",
"292 512 LINE SMOOTH",
"321 512 OFFCURVE",
"341 492 OFFCURVE",
"341 462 CURVE SMOOTH",
"341 432 OFFCURVE",
"321 412 OFFCURVE",
"292 412 CURVE SMOOTH",
"224 412 LINE",
"224 259 LINE",
"384 259 LINE SMOOTH",
"493 259 OFFCURVE",
"565 343 OFFCURVE",
"565 469 CURVE SMOOTH",
"565 608 OFFCURVE",
"481 700 OFFCURVE",
"354 700 CURVE SMOOTH",
"38 700 LINE",
"38 0 LINE"
);
},
{
closed = 1;
nodes = (
"580 0 LINE",
"407 320 LINE",
"191 320 LINE",
"342 0 LINE"
);
}
);
width = 565;
},
{
layerId = "6256A6A1-72B9-4ADD-8383-8893F8BF5D61";
paths = (
{
closed = 1;
nodes = (
"236 0 LINE",
"236 590 LINE",
"333 590 LINE SMOOTH",
"394 590 OFFCURVE",
"434 548 OFFCURVE",
"434 485 CURVE SMOOTH",
"434 422 OFFCURVE",
"394 381 OFFCURVE",
"333 381 CURVE SMOOTH",
"224 381 LINE",
"224 278 LINE",
"372 278 LINE SMOOTH",
"481 278 OFFCURVE",
"553 362 OFFCURVE",
"553 486 CURVE SMOOTH",
"553 616 OFFCURVE",
"475 700 OFFCURVE",
"356 700 CURVE SMOOTH",
"117 700 LINE",
"117 0 LINE"
);
},
{
closed = 1;
nodes = (
"538 0 LINE",
"397 329 LINE",
"272 325 LINE",
"398 0 LINE"
);
}
);
width = 642;
}
);
unicode = 0052;
},
{
color = 1;
glyphname = S;
lastChange = "2016-10-17 08:59:03 +0000";
layers = (
{
layerId = "262880E7-CFE1-4BDA-902E-E24798F3240A";
paths = (
{
closed = 1;
nodes = (
"404 -9 OFFCURVE",
"466 50 OFFCURVE",
"466 149 CURVE SMOOTH",
"466 255 OFFCURVE",
"394 306 OFFCURVE",
"311 361 CURVE SMOOTH",
"228 416 OFFCURVE",
"166 459 OFFCURVE",
"166 552 CURVE SMOOTH",
"166 636 OFFCURVE",
"218 690 OFFCURVE",
"302 690 CURVE SMOOTH",
"386 690 OFFCURVE",
"438 637 OFFCURVE",
"438 550 CURVE SMOOTH",
"438 500 LINE",
"460 500 LINE",
"460 550 LINE SMOOTH",
"460 650 OFFCURVE",
"400 709 OFFCURVE",
"302 709 CURVE SMOOTH",
"204 709 OFFCURVE",
"144 649 OFFCURVE",
"144 553 CURVE SMOOTH",
"144 446 OFFCURVE",
"219 394 OFFCURVE",
"297 342 CURVE SMOOTH",
"374 291 OFFCURVE",
"444 244 OFFCURVE",
"444 148 CURVE SMOOTH",
"444 63 OFFCURVE",
"390 11 OFFCURVE",
"303 11 CURVE SMOOTH",
"216 11 OFFCURVE",
"166 64 OFFCURVE",
"166 150 CURVE SMOOTH",
"166 210 LINE",
"146 210 LINE",
"146 150 LINE SMOOTH",
"146 50 OFFCURVE",
"203 -9 OFFCURVE",
"304 -9 CURVE SMOOTH"
);
}
);
width = 609;
},
{
layerId = "4F25946F-63AC-42D6-8D55-01CF6A99025B";
paths = (
{
closed = 1;
nodes = (
"411 -10 OFFCURVE",
"505 74 OFFCURVE",
"505 200 CURVE SMOOTH",
"505 312 OFFCURVE",
"431 381 OFFCURVE",
"318 425 CURVE SMOOTH",
"272 443 OFFCURVE",
"219 456 OFFCURVE",
"219 489 CURVE SMOOTH",
"219 503 OFFCURVE",
"229 518 OFFCURVE",
"253 518 CURVE SMOOTH",
"279 518 OFFCURVE",
"294 501 OFFCURVE",
"294 479 CURVE SMOOTH",
"294 464 LINE",
"506 474 LINE",
"506 479 LINE SMOOTH",
"506 617 OFFCURVE",
"399 710 OFFCURVE",
"247 710 CURVE SMOOTH",
"100 710 OFFCURVE",
"4 624 OFFCURVE",
"4 498 CURVE SMOOTH",
"4 389 OFFCURVE",
"77 318 OFFCURVE",
"191 275 CURVE SMOOTH",
"233 259 OFFCURVE",
"289 245 OFFCURVE",
"289 214 CURVE SMOOTH",
"289 201 OFFCURVE",
"280 182 OFFCURVE",
"254 182 CURVE SMOOTH",
"230 182 OFFCURVE",
"215 199 OFFCURVE",
"215 231 CURVE SMOOTH",
"215 236 LINE",
"-8 226 LINE",
"-8 221 LINE SMOOTH",
"-8 83 OFFCURVE",
"98 -10 OFFCURVE",
"258 -10 CURVE SMOOTH"
);
}
);
width = 503;
},
{
layerId = "6256A6A1-72B9-4ADD-8383-8893F8BF5D61";
paths = (
{
closed = 1;
nodes = (
"436 -10 OFFCURVE",
"515 63 OFFCURVE",
"515 176 CURVE SMOOTH",
"515 286 OFFCURVE",
"442 346 OFFCURVE",
"343 396 CURVE SMOOTH",
"279 429 OFFCURVE",
"223 457 OFFCURVE",
"223 518 CURVE SMOOTH",
"223 565 OFFCURVE",
"252 598 OFFCURVE",
"304 598 CURVE SMOOTH",
"357 598 OFFCURVE",
"389 564 OFFCURVE",
"389 512 CURVE SMOOTH",
"389 481 LINE",
"513 486 LINE",
"513 512 LINE SMOOTH",
"513 632 OFFCURVE",
"428 710 OFFCURVE",
"301 710 CURVE SMOOTH",
"177 710 OFFCURVE",
"97 636 OFFCURVE",
"97 524 CURVE SMOOTH",
"97 415 OFFCURVE",
"171 353 OFFCURVE",
"269 304 CURVE SMOOTH",
"328 275 OFFCURVE",
"389 245 OFFCURVE",
"389 183 CURVE SMOOTH",
"389 137 OFFCURVE",
"360 103 OFFCURVE",
"305 103 CURVE SMOOTH",
"252 103 OFFCURVE",
"221 136 OFFCURVE",
"221 193 CURVE SMOOTH",
"221 224 LINE",
"92 219 LINE",
"92 188 LINE SMOOTH",
"92 68 OFFCURVE",
"175 -10 OFFCURVE",
"308 -10 CURVE SMOOTH"
);
}
);
width = 608;
}
);
unicode = 0053;
},
{
color = 1;
glyphname = T;
lastChange = "2016-10-17 08:59:04 +0000";
layers = (
{
layerId = "262880E7-CFE1-4BDA-902E-E24798F3240A";
paths = (
{
closed = 1;
nodes = (
"297 0 LINE",
"297 689 LINE",
"275 689 LINE",
"275 0 LINE"
);
},
{
closed = 1;
nodes = (
"451 679 LINE",
"451 700 LINE",
"129 700 LINE",
"129 679 LINE"
);
}
);
width = 580;
},
{
layerId = "4F25946F-63AC-42D6-8D55-01CF6A99025B";
paths = (
{
closed = 1;
nodes = (
"332 0 LINE",
"332 606 LINE",
"120 606 LINE",
"120 0 LINE"
);
},
{
closed = 1;
nodes = (
"480 500 LINE",
"480 700 LINE",
"-28 700 LINE",
"-28 500 LINE"
);
}
);
width = 452;
},
{
layerId = "6256A6A1-72B9-4ADD-8383-8893F8BF5D61";
paths = (
{
closed = 1;
nodes = (
"355 0 LINE",
"355 644 LINE",
"231 644 LINE",
"231 0 LINE"
);
},
{
closed = 1;
nodes = (
"506 583 LINE",
"506 700 LINE",
"84 700 LINE",
"84 583 LINE"
);
}
);
width = 590;
}
);
unicode = 0054;
},
{
color = 1;
glyphname = U;
lastChange = "2016-10-17 08:59:04 +0000";
layers = (
{
layerId = "262880E7-CFE1-4BDA-902E-E24798F3240A";
paths = (
{
closed = 1;
nodes = (
"423 -9 OFFCURVE",
"485 50 OFFCURVE",
"485 150 CURVE SMOOTH",
"485 700 LINE",
"463 700 LINE",
"463 150 LINE SMOOTH",
"463 64 OFFCURVE",
"411 11 OFFCURVE",
"324 11 CURVE SMOOTH",
"237 11 OFFCURVE",
"185 64 OFFCURVE",
"185 150 CURVE SMOOTH",
"185 700 LINE",
"163 700 LINE",
"163 150 LINE SMOOTH",
"163 50 OFFCURVE",
"225 -9 OFFCURVE",
"324 -9 CURVE SMOOTH"
);
}
);
width = 648;
},
{
layerId = "4F25946F-63AC-42D6-8D55-01CF6A99025B";
paths = (
{
closed = 1;
nodes = (
"435 -10 OFFCURVE",
"537 88 OFFCURVE",
"537 234 CURVE SMOOTH",
"537 700 LINE",
"325 700 LINE",
"325 234 LINE SMOOTH",
"325 200 OFFCURVE",
"307 178 OFFCURVE",
"281 178 CURVE SMOOTH",
"255 178 OFFCURVE",
"237 200 OFFCURVE",
"237 234 CURVE SMOOTH",
"237 700 LINE",
"25 700 LINE",
"25 234 LINE SMOOTH",
"25 88 OFFCURVE",
"127 -10 OFFCURVE",
"281 -10 CURVE SMOOTH"
);
}
);
width = 562;
},
{
layerId = "6256A6A1-72B9-4ADD-8383-8893F8BF5D61";
paths = (
{
closed = 1;
nodes = (
"451 -10 OFFCURVE",
"534 70 OFFCURVE",
"534 195 CURVE SMOOTH",
"534 700 LINE",
"411 700 LINE",
"411 195 LINE SMOOTH",
"411 137 OFFCURVE",
"377 101 OFFCURVE",
"322 101 CURVE SMOOTH",
"268 101 OFFCURVE",
"234 137 OFFCURVE",
"234 195 CURVE SMOOTH",
"234 700 LINE",
"111 700 LINE",
"111 195 LINE SMOOTH",
"111 70 OFFCURVE",
"194 -10 OFFCURVE",
"322 -10 CURVE SMOOTH"
);
}
);
width = 645;
}
);
unicode = 0055;
},
{
color = 1;
glyphname = V;
lastChange = "2016-10-17 08:59:04 +0000";
layers = (
{
layerId = "262880E7-CFE1-4BDA-902E-E24798F3240A";
paths = (
{
closed = 1;
nodes = (
"319 0 LINE",
"484 700 LINE",
"462 700 LINE",
"308 40 LINE",
"154 700 LINE",
"132 700 LINE",
"297 0 LINE"
);
}
);
width = 616;
},
{
layerId = "4F25946F-63AC-42D6-8D55-01CF6A99025B";
paths = (
{
closed = 1;
nodes = (
"350 0 LINE",
"520 700 LINE",
"305 700 LINE",
"244 300 LINE",
"183 700 LINE",
"-32 700 LINE",
"138 0 LINE"
);
}
);
width = 488;
},
{
layerId = "6256A6A1-72B9-4ADD-8383-8893F8BF5D61";
paths = (
{
closed = 1;
nodes = (
"374 0 LINE",
"541 700 LINE",
"416 700 LINE",
"311 186 LINE",
"208 700 LINE",
"82 700 LINE",
"249 0 LINE"
);
}
);
width = 623;
}
);
unicode = 0056;
},
{
color = 1;
glyphname = W;
lastChange = "2016-10-17 08:59:03 +0000";
layers = (
{
layerId = "262880E7-CFE1-4BDA-902E-E24798F3240A";
paths = (
{
closed = 1;
nodes = (
"280 0 LINE",
"394 648 LINE",
"508 0 LINE",
"530 0 LINE",
"655 700 LINE",
"633 700 LINE",
"519 52 LINE",
"405 700 LINE",
"383 700 LINE",
"269 52 LINE",
"155 700 LINE",
"133 700 LINE",
"258 0 LINE"
);
}
);
width = 788;
},
{
layerId = "4F25946F-63AC-42D6-8D55-01CF6A99025B";
paths = (
{
closed = 1;
nodes = (
"344 1 LINE",
"380 307 LINE",
"416 1 LINE",
"634 1 LINE",
"788 700 LINE",
"572 700 LINE",
"527 363 LINE",
"485 699 LINE",
"275 699 LINE",
"233 363 LINE",
"188 700 LINE",
"-28 700 LINE",
"126 1 LINE"
);
}
);
width = 760;
},
{
layerId = "6256A6A1-72B9-4ADD-8383-8893F8BF5D61";
paths = (
{
closed = 1;
nodes = (
"349 0 LINE",
"421 472 LINE",
"494 0 LINE",
"618 0 LINE",
"759 700 LINE",
"635 700 LINE",
"559 211 LINE",
"483 700 LINE",
"359 700 LINE",
"284 211 LINE",
"207 700 LINE",
"83 700 LINE",
"225 0 LINE"
);
}
);
width = 842;
}
);
unicode = 0057;
},
{
color = 1;
glyphname = X;
lastChange = "2016-10-17 08:59:04 +0000";
layers = (
{
layerId = "262880E7-CFE1-4BDA-902E-E24798F3240A";
paths = (
{
closed = 1;
nodes = (
"441 700 LINE",
"298 376 LINE",
"155 700 LINE",
"132 700 LINE",
"287 350 LINE",
"132 0 LINE",
"155 0 LINE",
"298 324 LINE",
"441 0 LINE",
"464 0 LINE",
"310 350 LINE",
"464 700 LINE"
);
}
);
width = 596;
},
{
layerId = "4F25946F-63AC-42D6-8D55-01CF6A99025B";
paths = (
{
closed = 1;
nodes = (
"338 700 LINE",
"271 559 LINE",
"204 700 LINE",
"-34 700 LINE",
"154 350 LINE",
"-34 0 LINE",
"204 0 LINE",
"271 141 LINE",
"338 0 LINE",
"576 0 LINE",
"388 350 LINE",
"576 700 LINE"
);
}
);
width = 542;
},
{
associatedMasterId = "4F25946F-63AC-42D6-8D55-01CF6A99025B";
layerId = "A81EC77E-A514-41C1-A690-EF61EA7402F1";
name = "Bold Oct 15 16, 02:50";
paths = (
{
closed = 1;
nodes = (
"4 700 LINE",
"242 700 LINE",
"582 0 LINE",
"344 0 LINE"
);
},
{
closed = 1;
nodes = (
"344 700 LINE",
"582 700 LINE",
"242 0 LINE",
"4 0 LINE"
);
}
);
width = 586;
},
{
associatedMasterId = "262880E7-CFE1-4BDA-902E-E24798F3240A";
layerId = "077702AC-624F-4016-8C7C-9CDBE6837B88";
name = "Light Oct 16 16, 21:49";
paths = (
{
closed = 1;
nodes = (
"441 700 LINE",
"298 376 LINE",
"155 700 LINE",
"132 700 LINE",
"287 350 LINE",
"132 0 LINE",
"155 0 LINE",
"298 324 LINE",
"441 0 LINE",
"464 0 LINE",
"310 350 LINE",
"464 700 LINE"
);
}
);
width = 596;
},
{
layerId = "6256A6A1-72B9-4ADD-8383-8893F8BF5D61";
paths = (
{
closed = 1;
nodes = (
"407 700 LINE",
"310 471 LINE",
"214 700 LINE",
"82 700 LINE",
"245 350 LINE",
"82 0 LINE",
"214 0 LINE",
"310 229 LINE",
"407 0 LINE",
"538 0 LINE",
"376 350 LINE",
"538 700 LINE"
);
}
);
width = 620;
}
);
unicode = 0058;
},
{
color = 1;
glyphname = Y;
lastChange = "2016-10-17 08:59:04 +0000";
layers = (
{
layerId = "262880E7-CFE1-4BDA-902E-E24798F3240A";
paths = (
{
closed = 1;
nodes = (
"464 700 LINE",
"439 700 LINE",
"297 379 LINE",
"156 700 LINE",
"130 700 LINE",
"297 328 LINE"
);
},
{
closed = 1;
nodes = (
"308 0 LINE",
"308 350 LINE",
"286 350 LINE",
"286 0 LINE"
);
}
);
width = 594;
},
{
layerId = "4F25946F-63AC-42D6-8D55-01CF6A99025B";
paths = (
{
closed = 1;
nodes = (
"591 700 LINE",
"365 700 LINE",
"278 479 LINE",
"190 700 LINE",
"-46 700 LINE",
"277 12 LINE"
);
},
{
closed = 1;
nodes = (
"385 0 LINE",
"385 350 LINE",
"169 350 LINE",
"169 0 LINE"
);
}
);
width = 545;
},
{
layerId = "6256A6A1-72B9-4ADD-8383-8893F8BF5D61";
paths = (
{
closed = 1;
nodes = (
"576 700 LINE",
"443 700 LINE",
"330 433 LINE",
"218 700 LINE",
"79 700 LINE",
"330 159 LINE"
);
},
{
closed = 1;
nodes = (
"393 0 LINE",
"393 350 LINE",
"267 350 LINE",
"267 0 LINE"
);
}
);
width = 656;
}
);
unicode = 0059;
},
{
color = 1;
glyphname = Z;
lastChange = "2016-10-17 08:59:04 +0000";
layers = (
{
layerId = "262880E7-CFE1-4BDA-902E-E24798F3240A";
paths = (
{
closed = 1;
nodes = (
"447 0 LINE",
"447 22 LINE",
"163 22 LINE",
"463 700 LINE",
"147 700 LINE",
"147 679 LINE",
"431 679 LINE",
"131 0 LINE"
);
}
);
width = 594;
},
{
layerId = "4F25946F-63AC-42D6-8D55-01CF6A99025B";
paths = (
{
closed = 1;
nodes = (
"456 0 LINE",
"456 198 LINE",
"266 198 LINE",
"456 700 LINE",
"-9 700 LINE",
"-9 502 LINE",
"186 502 LINE",
"-12 0 LINE"
);
}
);
width = 446;
},
{
layerId = "6256A6A1-72B9-4ADD-8383-8893F8BF5D61";
paths = (
{
closed = 1;
nodes = (
"482 0 LINE",
"482 116 LINE",
"249 116 LINE",
"490 700 LINE",
"94 700 LINE",
"94 584 LINE",
"330 584 LINE",
"85 0 LINE"
);
}
);
width = 576;
}
);
unicode = 005A;
},
{
color = 1;
glyphname = a;
lastChange = "2016-10-17 08:59:04 +0000";
layers = (
{
layerId = "262880E7-CFE1-4BDA-902E-E24798F3240A";
paths = (
{
closed = 1;
nodes = (
"378 -7 OFFCURVE",
"437 56 OFFCURVE",
"437 156 CURVE SMOOTH",
"437 344 LINE SMOOTH",
"437 444 OFFCURVE",
"378 507 OFFCURVE",
"282 507 CURVE SMOOTH",
"185 507 OFFCURVE",
"122 446 OFFCURVE",
"122 346 CURVE SMOOTH",
"122 154 LINE SMOOTH",
"122 54 OFFCURVE",
"185 -7 OFFCURVE",
"282 -7 CURVE SMOOTH"
);
},
{
closed = 1;
nodes = (
"196 15 OFFCURVE",
"144 68 OFFCURVE",
"144 154 CURVE SMOOTH",
"144 346 LINE SMOOTH",
"144 432 OFFCURVE",
"198 486 OFFCURVE",
"283 486 CURVE SMOOTH",
"368 486 OFFCURVE",
"422 432 OFFCURVE",
"422 346 CURVE SMOOTH",
"422 154 LINE SMOOTH",
"422 68 OFFCURVE",
"370 15 OFFCURVE",
"283 15 CURVE SMOOTH"
);
},
{
closed = 1;
nodes = (
"444 0 LINE",
"444 500 LINE",
"422 500 LINE",
"422 0 LINE"
);
}
);
width = 578;
},
{
layerId = "4F25946F-63AC-42D6-8D55-01CF6A99025B";
paths = (
{
closed = 1;
nodes = (
"308 -5 OFFCURVE",
"388 88 OFFCURVE",
"388 240 CURVE SMOOTH",
"388 254 LINE SMOOTH",
"388 411 OFFCURVE",
"308 504 OFFCURVE",
"178 504 CURVE",
"73 504 OFFCURVE",
"9 415 OFFCURVE",
"9 318 CURVE SMOOTH",
"9 160 LINE SMOOTH",
"9 59 OFFCURVE",
"73 -3 OFFCURVE",
"178 -4 CURVE SMOOTH"
);
},
{
closed = 1;
nodes = (
"234 165 OFFCURVE",
"217 181 OFFCURVE",
"217 206 CURVE SMOOTH",
"217 298 LINE SMOOTH",
"217 323 OFFCURVE",
"234 339 OFFCURVE",
"260 339 CURVE SMOOTH",
"286 339 OFFCURVE",
"304 323 OFFCURVE",
"304 298 CURVE SMOOTH",
"304 206 LINE SMOOTH",
"304 181 OFFCURVE",
"286 165 OFFCURVE",
"260 165 CURVE SMOOTH"
);
},
{
closed = 1;
nodes = (
"511 0 LINE",
"511 500 LINE",
"304 500 LINE",
"304 0 LINE"
);
}
);
width = 541;
},
{
layerId = "6256A6A1-72B9-4ADD-8383-8893F8BF5D61";
paths = (
{
closed = 1;
nodes = (
"351 -5 OFFCURVE",
"422 83 OFFCURVE",
"422 171 CURVE SMOOTH",
"422 336 LINE SMOOTH",
"422 416 OFFCURVE",
"351 505 OFFCURVE",
"237 505 CURVE SMOOTH",
"136 505 OFFCURVE",
"72 447 OFFCURVE",
"72 348 CURVE SMOOTH",
"72 157 LINE SMOOTH",
"72 57 OFFCURVE",
"136 -5 OFFCURVE",
"237 -5 CURVE SMOOTH"
);
},
{
closed = 1;
nodes = (
"227 95 OFFCURVE",
"194 129 OFFCURVE",
"194 182 CURVE SMOOTH",
"194 320 LINE SMOOTH",
"194 374 OFFCURVE",
"228 407 OFFCURVE",
"281 407 CURVE SMOOTH",
"335 407 OFFCURVE",
"370 374 OFFCURVE",
"370 320 CURVE SMOOTH",
"370 182 LINE SMOOTH",
"370 129 OFFCURVE",
"336 95 OFFCURVE",
"281 95 CURVE SMOOTH"
);
},
{
closed = 1;
nodes = (
"491 0 LINE",
"491 500 LINE",
"370 500 LINE",
"370 0 LINE"
);
}
);
width = 575;
}
);
unicode = 0061;
},
{
color = 1;
glyphname = b;
lastChange = "2016-10-17 08:59:03 +0000";
layers = (
{
layerId = "262880E7-CFE1-4BDA-902E-E24798F3240A";
paths = (
{
closed = 1;
nodes = (
"156 0 LINE",
"156 700 LINE",
"134 700 LINE",
"134 0 LINE"
);
},
{
closed = 1;
nodes = (
"396 -7 OFFCURVE",
"456 54 OFFCURVE",
"456 154 CURVE SMOOTH",
"456 346 LINE SMOOTH",
"456 446 OFFCURVE",
"396 507 OFFCURVE",
"298 507 CURVE SMOOTH",
"200 507 OFFCURVE",
"136 444 OFFCURVE",
"136 344 CURVE SMOOTH",
"136 156 LINE SMOOTH",
"136 56 OFFCURVE",
"200 -7 OFFCURVE",
"298 -7 CURVE SMOOTH"
);
},
{
closed = 1;
nodes = (
"209 15 OFFCURVE",
"156 68 OFFCURVE",
"156 154 CURVE SMOOTH",
"156 346 LINE SMOOTH",
"156 433 OFFCURVE",
"209 486 OFFCURVE",
"295 486 CURVE SMOOTH",
"381 486 OFFCURVE",
"434 433 OFFCURVE",
"434 346 CURVE SMOOTH",
"434 154 LINE SMOOTH",
"434 68 OFFCURVE",
"381 15 OFFCURVE",
"295 15 CURVE SMOOTH"
);
}
);
width = 578;
},
{
layerId = "4F25946F-63AC-42D6-8D55-01CF6A99025B";
paths = (
{
closed = 1;
nodes = (
"237 0 LINE",
"237 700 LINE",
"30 700 LINE",
"30 0 LINE"
);
},
{
closed = 1;
nodes = (
"468 -3 OFFCURVE",
"532 59 OFFCURVE",
"532 160 CURVE SMOOTH",
"532 318 LINE SMOOTH",
"532 415 OFFCURVE",
"468 504 OFFCURVE",
"363 504 CURVE",
"233 504 OFFCURVE",
"153 411 OFFCURVE",
"153 254 CURVE SMOOTH",
"153 240 LINE SMOOTH",
"153 88 OFFCURVE",
"233 -5 OFFCURVE",
"363 -4 CURVE SMOOTH"
);
},
{
closed = 1;
nodes = (
"255 165 OFFCURVE",
"237 181 OFFCURVE",
"237 206 CURVE SMOOTH",
"237 298 LINE SMOOTH",
"237 323 OFFCURVE",
"255 339 OFFCURVE",
"281 339 CURVE SMOOTH",
"307 339 OFFCURVE",
"324 323 OFFCURVE",
"324 298 CURVE SMOOTH",
"324 206 LINE SMOOTH",
"324 181 OFFCURVE",
"307 165 OFFCURVE",
"281 165 CURVE SMOOTH"
);
}
);
width = 541;
},
{
layerId = "6256A6A1-72B9-4ADD-8383-8893F8BF5D61";
paths = (
{
closed = 1;
nodes = (
"204 -1 LINE",
"204 700 LINE",
"84 700 LINE",
"84 -1 LINE"
);
},
{
closed = 1;
nodes = (
"433 -6 OFFCURVE",
"501 57 OFFCURVE",
"501 157 CURVE SMOOTH",
"501 348 LINE SMOOTH",
"501 447 OFFCURVE",
"434 507 OFFCURVE",
"327 507 CURVE SMOOTH",
"196 507 OFFCURVE",
"136 416 OFFCURVE",
"136 301 CURVE SMOOTH",
"136 196 LINE SMOOTH",
"136 72 OFFCURVE",
"206 -6 OFFCURVE",
"326 -6 CURVE SMOOTH"
);
},
{
closed = 1;
nodes = (
"237 95 OFFCURVE",
"204 128 OFFCURVE",
"204 182 CURVE SMOOTH",
"204 320 LINE SMOOTH",
"204 374 OFFCURVE",
"237 407 OFFCURVE",
"292 407 CURVE SMOOTH",
"347 407 OFFCURVE",
"380 374 OFFCURVE",
"380 320 CURVE SMOOTH",
"380 182 LINE SMOOTH",
"380 128 OFFCURVE",
"347 95 OFFCURVE",
"292 95 CURVE SMOOTH"
);
}
);
width = 572;
}
);
unicode = 0062;
},
{
color = 1;
glyphname = c;
lastChange = "2016-10-17 08:59:05 +0000";
layers = (
{
layerId = "262880E7-CFE1-4BDA-902E-E24798F3240A";
paths = (
{
closed = 1;
nodes = (
"382 -5 OFFCURVE",
"444 54 OFFCURVE",
"444 154 CURVE SMOOTH",
"444 157 LINE",
"422 157 LINE",
"422 154 LINE SMOOTH",
"422 68 OFFCURVE",
"370 15 OFFCURVE",
"283 15 CURVE SMOOTH",
"196 15 OFFCURVE",
"144 68 OFFCURVE",
"144 154 CURVE SMOOTH",
"144 346 LINE SMOOTH",
"144 433 OFFCURVE",
"198 486 OFFCURVE",
"283 486 CURVE SMOOTH",
"368 486 OFFCURVE",
"422 433 OFFCURVE",
"422 346 CURVE SMOOTH",
"422 344 LINE",
"444 344 LINE",
"444 346 LINE SMOOTH",
"444 446 OFFCURVE",
"382 505 OFFCURVE",
"283 505 CURVE SMOOTH",
"184 505 OFFCURVE",
"122 446 OFFCURVE",
"122 346 CURVE SMOOTH",
"122 154 LINE SMOOTH",
"122 54 OFFCURVE",
"184 -5 OFFCURVE",
"283 -5 CURVE SMOOTH"
);
}
);
width = 553;
},
{
layerId = "4F25946F-63AC-42D6-8D55-01CF6A99025B";
paths = (
{
closed = 1;
nodes = (
"398 -3 OFFCURVE",
"493 81 OFFCURVE",
"503 232 CURVE",
"503 234 LINE",
"292 234 LINE",
"292 207 LINE SMOOTH",
"292 182 OFFCURVE",
"274 166 OFFCURVE",
"248 166 CURVE SMOOTH",
"222 166 OFFCURVE",
"205 182 OFFCURVE",
"205 207 CURVE",
"205 297 LINE",
"205 322 OFFCURVE",
"222 338 OFFCURVE",
"248 338 CURVE SMOOTH",
"274 338 OFFCURVE",
"292 322 OFFCURVE",
"292 297 CURVE",
"292 276 LINE",
"503 276 LINE",
"503 278 LINE",
"501 422 OFFCURVE",
"406 503 OFFCURVE",
"247 503 CURVE SMOOTH",
"87 503 OFFCURVE",
"-7 414 OFFCURVE",
"-7 255 CURVE SMOOTH",
"-7 248 LINE SMOOTH",
"-7 87 OFFCURVE",
"87 -3 OFFCURVE",
"246 -3 CURVE SMOOTH"
);
}
);
width = 495;
},
{
layerId = "6256A6A1-72B9-4ADD-8383-8893F8BF5D61";
paths = (
{
closed = 1;
nodes = (
"413 -9 OFFCURVE",
"490 60 OFFCURVE",
"490 195 CURVE SMOOTH",
"490 198 LINE",
"367 198 LINE",
"367 198 LINE SMOOTH",
"367 146 OFFCURVE",
"332 105 OFFCURVE",
"279 105 CURVE SMOOTH",
"226 105 OFFCURVE",
"191 146 OFFCURVE",
"191 198 CURVE SMOOTH",
"191 310 LINE SMOOTH",
"191 362 OFFCURVE",
"226 400 OFFCURVE",
"279 400 CURVE SMOOTH",
"332 400 OFFCURVE",
"367 362 OFFCURVE",
"367 310 CURVE SMOOTH",
"367 308 LINE",
"490 308 LINE",
"490 310 LINE SMOOTH",
"490 441 OFFCURVE",
"417 509 OFFCURVE",
"278 509 CURVE SMOOTH",
"139 509 OFFCURVE",
"68 437 OFFCURVE",
"68 298 CURVE SMOOTH",
"68 204 LINE SMOOTH",
"68 63 OFFCURVE",
"139 -9 OFFCURVE",
"278 -9 CURVE SMOOTH"
);
}
);
width = 550;
}
);
unicode = 0063;
},
{
color = 1;
glyphname = e;
lastChange = "2016-10-17 08:59:05 +0000";
layers = (
{
layerId = "262880E7-CFE1-4BDA-902E-E24798F3240A";
paths = (
{
closed = 1;
nodes = (
"382 -5 OFFCURVE",
"444 54 OFFCURVE",
"444 154 CURVE SMOOTH",
"444 158 LINE",
"422 158 LINE",
"422 154 LINE SMOOTH",
"422 68 OFFCURVE",
"370 15 OFFCURVE",
"283 15 CURVE SMOOTH",
"196 15 OFFCURVE",
"144 68 OFFCURVE",
"144 154 CURVE SMOOTH",
"144 346 LINE SMOOTH",
"144 433 OFFCURVE",
"198 486 OFFCURVE",
"283 486 CURVE SMOOTH",
"368 486 OFFCURVE",
"422 433 OFFCURVE",
"422 346 CURVE SMOOTH",
"422 261 LINE",
"139 261 LINE",
"139 240 LINE",
"444 240 LINE",
"444 346 LINE SMOOTH",
"444 446 OFFCURVE",
"382 505 OFFCURVE",
"283 505 CURVE SMOOTH",
"184 505 OFFCURVE",
"122 446 OFFCURVE",
"122 346 CURVE SMOOTH",
"122 154 LINE SMOOTH",
"122 54 OFFCURVE",
"184 -5 OFFCURVE",
"283 -5 CURVE SMOOTH"
);
}
);
width = 561;
},
{
layerId = "4F25946F-63AC-42D6-8D55-01CF6A99025B";
paths = (
{
closed = 1;
nodes = (
"398 -4 OFFCURVE",
"493 66 OFFCURVE",
"502 193 CURVE",
"502 193 LINE",
"302 193 LINE",
"302 193 LINE",
"298 164 OFFCURVE",
"274 152 OFFCURVE",
"248 152 CURVE SMOOTH",
"222 152 OFFCURVE",
"205 168 OFFCURVE",
"205 193 CURVE SMOOTH",
"205 318 LINE SMOOTH",
"205 344 OFFCURVE",
"222 359 OFFCURVE",
"248 359 CURVE SMOOTH",
"274 359 OFFCURVE",
"291 344 OFFCURVE",
"291 318 CURVE SMOOTH",
"291 299 LINE",
"188 299 LINE",
"188 231 LINE",
"502 231 LINE",
"502 262 LINE",
"500 417 OFFCURVE",
"406 504 OFFCURVE",
"247 504 CURVE SMOOTH",
"87 504 OFFCURVE",
"-7 415 OFFCURVE",
"-7 256 CURVE SMOOTH",
"-7 247 LINE SMOOTH",
"-7 86 OFFCURVE",
"87 -4 OFFCURVE",
"246 -4 CURVE SMOOTH"
);
}
);
width = 497;
},
{
layerId = "6256A6A1-72B9-4ADD-8383-8893F8BF5D61";
paths = (
{
closed = 1;
nodes = (
"404 -7 OFFCURVE",
"488 56 OFFCURVE",
"488 160 CURVE SMOOTH",
"488 161 LINE",
"365 162 LINE",
"365 158 LINE SMOOTH",
"365 123 OFFCURVE",
"328 101 OFFCURVE",
"277 101 CURVE SMOOTH",
"223 101 OFFCURVE",
"190 134 OFFCURVE",
"190 188 CURVE SMOOTH",
"190 319 LINE SMOOTH",
"190 373 OFFCURVE",
"223 406 OFFCURVE",
"277 406 CURVE SMOOTH",
"332 406 OFFCURVE",
"365 373 OFFCURVE",
"365 319 CURVE SMOOTH",
"365 290 LINE",
"178 290 LINE",
"178 211 LINE",
"488 211 LINE",
"488 301 LINE SMOOTH",
"488 429 OFFCURVE",
"408 507 OFFCURVE",
"277 507 CURVE SMOOTH",
"146 507 OFFCURVE",
"66 428 OFFCURVE",
"66 298 CURVE SMOOTH",
"66 204 LINE SMOOTH",
"66 73 OFFCURVE",
"146 -7 OFFCURVE",
"276 -7 CURVE SMOOTH"
);
}
);
width = 554;
}
);
unicode = 0065;
},
{
color = 1;
glyphname = f;
lastChange = "2016-10-17 08:59:03 +0000";
layers = (
{
layerId = "262880E7-CFE1-4BDA-902E-E24798F3240A";
paths = (
{
closed = 1;
nodes = (
"188 -1 LINE",
"188 550 LINE SMOOTH",
"188 637 OFFCURVE",
"241 690 OFFCURVE",
"327 690 CURVE",
"327 711 LINE",
"227 711 OFFCURVE",
"166 650 OFFCURVE",
"166 550 CURVE SMOOTH",
"166 -1 LINE"
);
},
{
closed = 1;
nodes = (
"297 479 LINE",
"297 500 LINE",
"97 500 LINE",
"97 479 LINE"
);
}
);
width = 394;
},
{
layerId = "4F25946F-63AC-42D6-8D55-01CF6A99025B";
paths = (
{
closed = 1;
nodes = (
"233 8 LINE",
"233 525 LINE",
"233 545 OFFCURVE",
"255 551 OFFCURVE",
"277 551 CURVE",
"277 693 LINE",
"137 700 OFFCURVE",
"48 690 OFFCURVE",
"48 549 CURVE",
"48 8 LINE"
);
},
{
closed = 1;
nodes = (
"295 326 LINE",
"295 500 LINE",
"2 500 LINE",
"2 326 LINE"
);
}
);
width = 288;
},
{
layerId = "6256A6A1-72B9-4ADD-8383-8893F8BF5D61";
paths = (
{
closed = 1;
nodes = (
"220 4 LINE",
"220 544 LINE SMOOTH",
"220 598 OFFCURVE",
"260 610 OFFCURVE",
"306 610 CURVE",
"307 698 LINE",
"186 702 OFFCURVE",
"110 671 OFFCURVE",
"110 550 CURVE SMOOTH",
"110 4 LINE"
);
},
{
closed = 1;
nodes = (
"304 397 LINE",
"304 500 LINE",
"53 500 LINE",
"53 397 LINE"
);
}
);
width = 357;
}
);
unicode = 0066;
},
{
color = 1;
glyphname = g;
lastChange = "2016-10-17 08:59:03 +0000";
layers = (
{
layerId = "262880E7-CFE1-4BDA-902E-E24798F3240A";
paths = (
{
closed = 1;
nodes = (
"378 -5 OFFCURVE",
"437 56 OFFCURVE",
"437 156 CURVE SMOOTH",
"437 344 LINE SMOOTH",
"437 444 OFFCURVE",
"378 505 OFFCURVE",
"280 505 CURVE SMOOTH",
"182 505 OFFCURVE",
"122 445 OFFCURVE",
"122 346 CURVE SMOOTH",
"122 154 LINE SMOOTH",
"122 55 OFFCURVE",
"182 -5 OFFCURVE",
"281 -5 CURVE"
);
},
{
closed = 1;
nodes = (
"197 17 OFFCURVE",
"144 70 OFFCURVE",
"144 156 CURVE SMOOTH",
"144 344 LINE SMOOTH",
"144 431 OFFCURVE",
"197 484 OFFCURVE",
"283 484 CURVE SMOOTH",
"369 484 OFFCURVE",
"422 431 OFFCURVE",
"422 344 CURVE SMOOTH",
"422 156 LINE SMOOTH",
"422 70 OFFCURVE",
"369 17 OFFCURVE",
"283 17 CURVE SMOOTH"
);
},
{
closed = 1;
nodes = (
"371 -206 OFFCURVE",
"444 -140 OFFCURVE",
"444 0 CURVE SMOOTH",
"444 500 LINE",
"422 500 LINE",
"422 0 LINE SMOOTH",
"422 -126 OFFCURVE",
"356 -185 OFFCURVE",
"237 -181 CURVE",
"237 -202 LINE"
);
}
);
width = 578;
},
{
layerId = "4F25946F-63AC-42D6-8D55-01CF6A99025B";
paths = (
{
closed = 1;
nodes = (
"311 -5 OFFCURVE",
"391 88 OFFCURVE",
"391 240 CURVE SMOOTH",
"391 254 LINE SMOOTH",
"391 411 OFFCURVE",
"311 504 OFFCURVE",
"181 504 CURVE",
"76 504 OFFCURVE",
"12 447 OFFCURVE",
"12 350 CURVE SMOOTH",
"12 160 LINE SMOOTH",
"12 59 OFFCURVE",
"76 -3 OFFCURVE",
"181 -4 CURVE SMOOTH"
);
},
{
closed = 1;
nodes = (
"231 165 OFFCURVE",
"214 181 OFFCURVE",
"214 206 CURVE SMOOTH",
"214 298 LINE SMOOTH",
"214 323 OFFCURVE",
"231 339 OFFCURVE",
"257 339 CURVE SMOOTH",
"283 339 OFFCURVE",
"301 323 OFFCURVE",
"301 298 CURVE SMOOTH",
"301 206 LINE SMOOTH",
"301 181 OFFCURVE",
"283 165 OFFCURVE",
"257 165 CURVE SMOOTH"
);
},
{
closed = 1;
nodes = (
"446 -226 OFFCURVE",
"513 -115 OFFCURVE",
"513 34 CURVE SMOOTH",
"513 500 LINE",
"301 500 LINE",
"301 34 LINE SMOOTH",
"301 -14 OFFCURVE",
"284 -44 OFFCURVE",
"140 -36 CURVE",
"140 -207 LINE"
);
}
);
width = 543;
},
{
layerId = "6256A6A1-72B9-4ADD-8383-8893F8BF5D61";
paths = (
{
closed = 1;
nodes = (
"362 -6 OFFCURVE",
"433 78 OFFCURVE",
"433 204 CURVE SMOOTH",
"433 282 LINE SMOOTH",
"433 384 OFFCURVE",
"385 504 OFFCURVE",
"246 504 CURVE SMOOTH",
"147 504 OFFCURVE",
"71 446 OFFCURVE",
"71 349 CURVE SMOOTH",
"71 157 LINE SMOOTH",
"71 56 OFFCURVE",
"143 -4 OFFCURVE",
"243 -5 CURVE"
);
},
{
closed = 1;
nodes = (
"223 95 OFFCURVE",
"190 129 OFFCURVE",
"190 182 CURVE SMOOTH",
"190 319 LINE SMOOTH",
"190 372 OFFCURVE",
"223 406 OFFCURVE",
"278 406 CURVE SMOOTH",
"331 406 OFFCURVE",
"366 372 OFFCURVE",
"366 319 CURVE SMOOTH",
"366 182 LINE SMOOTH",
"366 129 OFFCURVE",
"331 95 OFFCURVE",
"278 95 CURVE SMOOTH"
);
},
{
closed = 1;
nodes = (
"425 -219 OFFCURVE",
"490 -131 OFFCURVE",
"490 -5 CURVE SMOOTH",
"490 500 LINE",
"366 500 LINE",
"366 -5 LINE SMOOTH",
"366 -71 OFFCURVE",
"332 -112 OFFCURVE",
"206 -107 CURVE",
"206 -208 LINE"
);
}
);
width = 574;
}
);
unicode = 0067;
},
{
color = 1;
glyphname = h;
lastChange = "2016-10-17 08:59:04 +0000";
layers = (
{
layerId = "262880E7-CFE1-4BDA-902E-E24798F3240A";
paths = (
{
closed = 1;
nodes = (
"456 0 LINE",
"456 346 LINE SMOOTH",
"456 446 OFFCURVE",
"394 505 OFFCURVE",
"297 505 CURVE SMOOTH",
"199 505 OFFCURVE",
"140 444 OFFCURVE",
"140 344 CURVE",
"156 344 LINE",
"156 431 OFFCURVE",
"210 484 OFFCURVE",
"295 484 CURVE SMOOTH",
"380 484 OFFCURVE",
"434 431 OFFCURVE",
"434 344 CURVE SMOOTH",
"434 0 LINE"
);
},
{
closed = 1;
nodes = (
"156 0 LINE",
"156 700 LINE",
"134 700 LINE",
"134 0 LINE"
);
}
);
width = 584;
},
{
layerId = "4F25946F-63AC-42D6-8D55-01CF6A99025B";
paths = (
{
closed = 1;
nodes = (
"532 0 LINE",
"532 350 LINE SMOOTH",
"532 441 OFFCURVE",
"481 510 OFFCURVE",
"365 510 CURVE SMOOTH",
"216 510 OFFCURVE",
"173 396 OFFCURVE",
"173 294 CURVE",
"238 294 LINE",
"238 321 OFFCURVE",
"255 339 OFFCURVE",
"281 339 CURVE SMOOTH",
"307 339 OFFCURVE",
"325 321 OFFCURVE",
"325 294 CURVE SMOOTH",
"325 0 LINE"
);
},
{
closed = 1;
nodes = (
"238 0 LINE",
"238 700 LINE",
"30 700 LINE",
"30 0 LINE"
);
}
);
width = 555;
},
{
layerId = "6256A6A1-72B9-4ADD-8383-8893F8BF5D61";
paths = (
{
closed = 1;
nodes = (
"503 0 LINE",
"503 349 LINE SMOOTH",
"503 443 OFFCURVE",
"445 508 OFFCURVE",
"335 508 CURVE SMOOTH",
"213 508 OFFCURVE",
"156 427 OFFCURVE",
"156 318 CURVE",
"206 318 LINE",
"206 373 OFFCURVE",
"240 407 OFFCURVE",
"293 407 CURVE SMOOTH",
"346 407 OFFCURVE",
"381 373 OFFCURVE",
"381 318 CURVE SMOOTH",
"381 0 LINE"
);
},
{
closed = 1;
nodes = (
"206 0 LINE",
"206 700 LINE",
"84 700 LINE",
"84 0 LINE"
);
}
);
width = 581;
}
);
unicode = 0068;
},
{
color = 1;
glyphname = i;
lastChange = "2016-10-17 08:59:04 +0000";
layers = (
{
layerId = "262880E7-CFE1-4BDA-902E-E24798F3240A";
paths = (
{
closed = 1;
nodes = (
"156 -1 LINE",
"156 500 LINE",
"134 500 LINE",
"134 -1 LINE"
);
},
{
closed = 1;
nodes = (
"162 669 OFFCURVE",
"176 683 OFFCURVE",
"176 700 CURVE SMOOTH",
"176 716 OFFCURVE",
"162 730 OFFCURVE",
"145 730 CURVE SMOOTH",
"128 730 OFFCURVE",
"114 716 OFFCURVE",
"114 700 CURVE SMOOTH",
"114 683 OFFCURVE",
"128 669 OFFCURVE",
"145 669 CURVE SMOOTH"
);
}
);
width = 290;
},
{
layerId = "4F25946F-63AC-42D6-8D55-01CF6A99025B";
paths = (
{
closed = 1;
nodes = (
"238 0 LINE",
"238 500 LINE",
"30 500 LINE",
"30 0 LINE"
);
},
{
closed = 1;
nodes = (
"195 547 OFFCURVE",
"248 591 OFFCURVE",
"248 656 CURVE",
"248 715 OFFCURVE",
"195 763 OFFCURVE",
"134 763 CURVE SMOOTH",
"73 763 OFFCURVE",
"20 715 OFFCURVE",
"20 656 CURVE SMOOTH",
"20 595 OFFCURVE",
"71 547 OFFCURVE",
"134 547 CURVE SMOOTH"
);
}
);
width = 268;
},
{
layerId = "6256A6A1-72B9-4ADD-8383-8893F8BF5D61";
paths = (
{
closed = 1;
nodes = (
"206 0 LINE",
"206 500 LINE",
"84 500 LINE",
"84 0 LINE"
);
},
{
closed = 1;
nodes = (
"185 604 OFFCURVE",
"220 634 OFFCURVE",
"220 676 CURVE SMOOTH",
"220 715 OFFCURVE",
"185 748 OFFCURVE",
"145 748 CURVE SMOOTH",
"104 748 OFFCURVE",
"69 715 OFFCURVE",
"69 676 CURVE SMOOTH",
"69 636 OFFCURVE",
"103 604 OFFCURVE",
"145 604 CURVE SMOOTH"
);
}
);
width = 290;
}
);
unicode = 0069;
},
{
color = 1;
glyphname = j;
lastChange = "2016-10-17 08:59:04 +0000";
layers = (
{
layerId = "262880E7-CFE1-4BDA-902E-E24798F3240A";
paths = (
{
closed = 1;
nodes = (
"104 -211 OFFCURVE",
"156 -159 OFFCURVE",
"156 -74 CURVE SMOOTH",
"156 500 LINE",
"134 500 LINE",
"134 -74 LINE SMOOTH",
"134 -146 OFFCURVE",
"91 -190 OFFCURVE",
"20 -190 CURVE",
"20 -211 LINE"
);
},
{
closed = 1;
nodes = (
"164 669 OFFCURVE",
"176 681 OFFCURVE",
"176 700 CURVE SMOOTH",
"176 719 OFFCURVE",
"164 730 OFFCURVE",
"145 730 CURVE SMOOTH",
"126 730 OFFCURVE",
"114 719 OFFCURVE",
"114 700 CURVE SMOOTH",
"114 681 OFFCURVE",
"126 669 OFFCURVE",
"145 669 CURVE SMOOTH"
);
}
);
width = 290;
},
{
layerId = "4F25946F-63AC-42D6-8D55-01CF6A99025B";
paths = (
{
closed = 1;
nodes = (
"126 -236 OFFCURVE",
"239 -200 OFFCURVE",
"238 -39 CURVE",
"238 500 LINE",
"30 500 LINE",
"30 -8 LINE",
"30 -40 OFFCURVE",
"-24 -39 OFFCURVE",
"-57 -26 CURVE",
"-67 -201 LINE"
);
},
{
closed = 1;
nodes = (
"196 547 OFFCURVE",
"248 595 OFFCURVE",
"248 656 CURVE",
"248 715 OFFCURVE",
"196 763 OFFCURVE",
"134 763 CURVE SMOOTH",
"73 763 OFFCURVE",
"20 715 OFFCURVE",
"20 656 CURVE SMOOTH",
"20 595 OFFCURVE",
"71 547 OFFCURVE",
"134 547 CURVE SMOOTH"
);
}
);
width = 268;
},
{
layerId = "6256A6A1-72B9-4ADD-8383-8893F8BF5D61";
paths = (
{
closed = 1;
nodes = (
"122 -224 OFFCURVE",
"206 -181 OFFCURVE",
"206 -55 CURVE SMOOTH",
"206 500 LINE",
"84 500 LINE",
"84 -39 LINE SMOOTH",
"84 -89 OFFCURVE",
"35 -109 OFFCURVE",
"-16 -102 CURVE",
"-21 -206 LINE"
);
},
{
closed = 1;
nodes = (
"187 604 OFFCURVE",
"220 635 OFFCURVE",
"220 676 CURVE SMOOTH",
"220 717 OFFCURVE",
"187 748 OFFCURVE",
"145 748 CURVE SMOOTH",
"103 748 OFFCURVE",
"69 717 OFFCURVE",
"69 676 CURVE SMOOTH",
"69 635 OFFCURVE",
"102 604 OFFCURVE",
"145 604 CURVE SMOOTH"
);
}
);
width = 290;
}
);
unicode = 006A;
},
{
color = 1;
glyphname = k;
lastChange = "2016-10-17 08:59:04 +0000";
layers = (
{
layerId = "262880E7-CFE1-4BDA-902E-E24798F3240A";
paths = (
{
closed = 1;
nodes = (
"413 0 LINE",
"167 250 LINE",
"415 500 LINE",
"384 500 LINE",
"135 250 LINE",
"382 0 LINE"
);
},
{
closed = 1;
nodes = (
"155 1 LINE",
"156 700 LINE",
"134 700 LINE",
"133 1 LINE"
);
}
);
width = 512;
},
{
layerId = "4F25946F-63AC-42D6-8D55-01CF6A99025B";
paths = (
{
closed = 1;
nodes = (
"540 0 LINE",
"358 250 LINE",
"550 500 LINE",
"318 500 LINE",
"174 256 LINE",
"304 0 LINE"
);
},
{
closed = 1;
nodes = (
"218 0 LINE",
"219 700 LINE",
"31 700 LINE",
"30 0 LINE"
);
}
);
width = 506;
},
{
layerId = "6256A6A1-72B9-4ADD-8383-8893F8BF5D61";
paths = (
{
closed = 1;
nodes = (
"499 0 LINE",
"297 250 LINE",
"514 500 LINE",
"364 500 LINE",
"156 250 LINE",
"348 0 LINE"
);
},
{
closed = 1;
nodes = (
"204 0 LINE",
"205 700 LINE",
"84 700 LINE",
"83 0 LINE"
);
}
);
width = 560;
}
);
unicode = 006B;
},
{
color = 1;
glyphname = l;
lastChange = "2016-10-17 08:59:04 +0000";
layers = (
{
layerId = "262880E7-CFE1-4BDA-902E-E24798F3240A";
paths = (
{
closed = 1;
nodes = (
"156 -1 LINE",
"156 700 LINE",
"134 700 LINE",
"134 -1 LINE"
);
}
);
width = 290;
},
{
layerId = "4F25946F-63AC-42D6-8D55-01CF6A99025B";
paths = (
{
closed = 1;
nodes = (
"238 0 LINE",
"238 700 LINE",
"30 700 LINE",
"30 0 LINE"
);
}
);
width = 268;
},
{
layerId = "6256A6A1-72B9-4ADD-8383-8893F8BF5D61";
paths = (
{
closed = 1;
nodes = (
"206 0 LINE",
"206 700 LINE",
"84 700 LINE",
"84 0 LINE"
);
}
);
width = 290;
}
);
unicode = 006C;
},
{
color = 1;
glyphname = m;
lastChange = "2016-10-17 08:59:04 +0000";
layers = (
{
layerId = "262880E7-CFE1-4BDA-902E-E24798F3240A";
paths = (
{
closed = 1;
nodes = (
"156 0 LINE",
"156 500 LINE",
"134 500 LINE",
"134 0 LINE"
);
},
{
closed = 1;
nodes = (
"446 0 LINE",
"446 345 LINE",
"446 441 OFFCURVE",
"385 506 OFFCURVE",
"291 506 CURVE SMOOTH",
"196 506 OFFCURVE",
"141 445 OFFCURVE",
"141 345 CURVE",
"156 345 LINE",
"156 432 OFFCURVE",
"207 485 OFFCURVE",
"290 485 CURVE SMOOTH",
"373 485 OFFCURVE",
"424 432 OFFCURVE",
"424 345 CURVE",
"424 0 LINE"
);
},
{
closed = 1;
nodes = (
"736 0 LINE",
"736 345 LINE SMOOTH",
"736 445 OFFCURVE",
"675 506 OFFCURVE",
"581 506 CURVE SMOOTH",
"483 506 OFFCURVE",
"429 446 OFFCURVE",
"429 345 CURVE",
"446 345 LINE",
"446 432 OFFCURVE",
"497 485 OFFCURVE",
"580 485 CURVE SMOOTH",
"663 485 OFFCURVE",
"714 432 OFFCURVE",
"714 345 CURVE SMOOTH",
"714 0 LINE"
);
}
);
width = 864;
},
{
layerId = "4F25946F-63AC-42D6-8D55-01CF6A99025B";
paths = (
{
closed = 1;
nodes = (
"238 0 LINE",
"238 500 LINE",
"30 500 LINE",
"30 0 LINE"
);
},
{
closed = 1;
nodes = (
"532 0 LINE",
"532 350 LINE SMOOTH",
"532 441 OFFCURVE",
"487 502 OFFCURVE",
"370 502 CURVE",
"222 502 OFFCURVE",
"173 387 OFFCURVE",
"173 286 CURVE",
"238 294 LINE",
"238 321 OFFCURVE",
"255 339 OFFCURVE",
"281 339 CURVE SMOOTH",
"307 339 OFFCURVE",
"325 321 OFFCURVE",
"325 294 CURVE SMOOTH",
"325 0 LINE"
);
},
{
closed = 1;
nodes = (
"826 0 LINE",
"826 350 LINE SMOOTH",
"826 441 OFFCURVE",
"778 502 OFFCURVE",
"660 502 CURVE",
"516 502 OFFCURVE",
"467 387 OFFCURVE",
"467 286 CURVE",
"532 294 LINE",
"532 321 OFFCURVE",
"549 339 OFFCURVE",
"575 339 CURVE SMOOTH",
"601 339 OFFCURVE",
"619 321 OFFCURVE",
"619 294 CURVE SMOOTH",
"619 0 LINE"
);
}
);
width = 848;
},
{
layerId = "6256A6A1-72B9-4ADD-8383-8893F8BF5D61";
paths = (
{
closed = 1;
nodes = (
"205 0 LINE",
"205 500 LINE",
"84 500 LINE",
"84 0 LINE"
);
},
{
closed = 1;
nodes = (
"491 0 LINE",
"491 350 LINE SMOOTH",
"491 445 OFFCURVE",
"441 508 OFFCURVE",
"336 508 CURVE SMOOTH",
"215 508 OFFCURVE",
"160 427 OFFCURVE",
"160 323 CURVE",
"205 325 LINE",
"205 377 OFFCURVE",
"237 409 OFFCURVE",
"287 409 CURVE SMOOTH",
"338 409 OFFCURVE",
"370 377 OFFCURVE",
"370 325 CURVE SMOOTH",
"370 0 LINE"
);
},
{
closed = 1;
nodes = (
"778 0 LINE",
"778 350 LINE SMOOTH",
"778 445 OFFCURVE",
"727 508 OFFCURVE",
"622 508 CURVE SMOOTH",
"502 508 OFFCURVE",
"438 427 OFFCURVE",
"438 323 CURVE",
"491 325 LINE",
"491 377 OFFCURVE",
"523 409 OFFCURVE",
"574 409 CURVE SMOOTH",
"625 409 OFFCURVE",
"657 377 OFFCURVE",
"657 325 CURVE SMOOTH",
"657 0 LINE"
);
}
);
width = 856;
}
);
unicode = 006D;
},
{
color = 1;
glyphname = n;
lastChange = "2016-10-17 08:59:04 +0000";
layers = (
{
layerId = "262880E7-CFE1-4BDA-902E-E24798F3240A";
paths = (
{
closed = 1;
nodes = (
"456 0 LINE",
"456 344 LINE SMOOTH",
"456 444 OFFCURVE",
"395 504 OFFCURVE",
"296 504 CURVE SMOOTH",
"200 504 OFFCURVE",
"141 443 OFFCURVE",
"141 343 CURVE",
"156 343 LINE",
"156 430 OFFCURVE",
"209 483 OFFCURVE",
"295 483 CURVE SMOOTH",
"381 483 OFFCURVE",
"434 430 OFFCURVE",
"434 343 CURVE SMOOTH",
"434 0 LINE"
);
},
{
closed = 1;
nodes = (
"156 0 LINE",
"156 496 LINE",
"134 496 LINE",
"134 0 LINE"
);
}
);
width = 584;
},
{
layerId = "4F25946F-63AC-42D6-8D55-01CF6A99025B";
paths = (
{
closed = 1;
nodes = (
"532 0 LINE",
"532 350 LINE SMOOTH",
"532 441 OFFCURVE",
"487 502 OFFCURVE",
"370 502 CURVE",
"222 502 OFFCURVE",
"173 387 OFFCURVE",
"173 286 CURVE",
"238 294 LINE",
"238 321 OFFCURVE",
"255 339 OFFCURVE",
"281 339 CURVE SMOOTH",
"307 339 OFFCURVE",
"325 321 OFFCURVE",
"325 294 CURVE SMOOTH",
"325 0 LINE"
);
},
{
closed = 1;
nodes = (
"238 0 LINE",
"238 500 LINE",
"30 500 LINE",
"30 0 LINE"
);
}
);
width = 555;
},
{
layerId = "6256A6A1-72B9-4ADD-8383-8893F8BF5D61";
paths = (
{
closed = 1;
nodes = (
"503 0 LINE",
"503 347 LINE SMOOTH",
"503 442 OFFCURVE",
"446 505 OFFCURVE",
"338 505 CURVE SMOOTH",
"213 505 OFFCURVE",
"150 415 OFFCURVE",
"150 315 CURVE",
"206 317 LINE",
"206 372 OFFCURVE",
"239 406 OFFCURVE",
"293 406 CURVE SMOOTH",
"347 406 OFFCURVE",
"381 372 OFFCURVE",
"381 317 CURVE SMOOTH",
"381 0 LINE"
);
},
{
closed = 1;
nodes = (
"206 0 LINE",
"206 499 LINE",
"84 499 LINE",
"84 0 LINE"
);
}
);
width = 581;
}
);
unicode = 006E;
},
{
color = 1;
glyphname = o;
lastChange = "2016-10-17 08:59:03 +0000";
layers = (
{
layerId = "262880E7-CFE1-4BDA-902E-E24798F3240A";
paths = (
{
closed = 1;
nodes = (
"383 -5 OFFCURVE",
"444 56 OFFCURVE",
"444 156 CURVE SMOOTH",
"444 344 LINE SMOOTH",
"444 444 OFFCURVE",
"383 505 OFFCURVE",
"283 505 CURVE SMOOTH",
"183 505 OFFCURVE",
"122 444 OFFCURVE",
"122 344 CURVE SMOOTH",
"122 156 LINE SMOOTH",
"122 56 OFFCURVE",
"183 -5 OFFCURVE",
"283 -5 CURVE SMOOTH"
);
},
{
closed = 1;
nodes = (
"197 17 OFFCURVE",
"144 70 OFFCURVE",
"144 156 CURVE SMOOTH",
"144 344 LINE SMOOTH",
"144 431 OFFCURVE",
"197 484 OFFCURVE",
"283 484 CURVE SMOOTH",
"369 484 OFFCURVE",
"422 431 OFFCURVE",
"422 344 CURVE SMOOTH",
"422 156 LINE SMOOTH",
"422 70 OFFCURVE",
"369 17 OFFCURVE",
"283 17 CURVE SMOOTH"
);
}
);
width = 566;
},
{
layerId = "4F25946F-63AC-42D6-8D55-01CF6A99025B";
paths = (
{
closed = 1;
nodes = (
"408 -5 OFFCURVE",
"503 85 OFFCURVE",
"503 246 CURVE",
"503 257 LINE",
"501 416 OFFCURVE",
"406 505 OFFCURVE",
"247 505 CURVE",
"87 505 OFFCURVE",
"-7 416 OFFCURVE",
"-7 257 CURVE",
"-7 246 LINE",
"-6 85 OFFCURVE",
"88 -5 OFFCURVE",
"247 -5 CURVE SMOOTH"
);
},
{
closed = 1;
nodes = (
"221 162 OFFCURVE",
"204 178 OFFCURVE",
"204 203 CURVE SMOOTH",
"204 297 LINE SMOOTH",
"204 322 OFFCURVE",
"221 338 OFFCURVE",
"247 338 CURVE SMOOTH",
"273 338 OFFCURVE",
"291 322 OFFCURVE",
"291 297 CURVE SMOOTH",
"291 203 LINE SMOOTH",
"291 178 OFFCURVE",
"273 162 OFFCURVE",
"247 162 CURVE SMOOTH"
);
}
);
width = 495;
},
{
layerId = "6256A6A1-72B9-4ADD-8383-8893F8BF5D61";
paths = (
{
closed = 1;
nodes = (
"401 -7 OFFCURVE",
"480 70 OFFCURVE",
"480 195 CURVE SMOOTH",
"480 307 LINE SMOOTH",
"480 431 OFFCURVE",
"401 507 OFFCURVE",
"273 507 CURVE SMOOTH",
"145 507 OFFCURVE",
"67 431 OFFCURVE",
"67 307 CURVE SMOOTH",
"67 195 LINE SMOOTH",
"67 70 OFFCURVE",
"145 -7 OFFCURVE",
"273 -7 CURVE SMOOTH"
);
},
{
closed = 1;
nodes = (
"220 110 OFFCURVE",
"185 145 OFFCURVE",
"185 197 CURVE SMOOTH",
"185 305 LINE SMOOTH",
"185 357 OFFCURVE",
"220 392 OFFCURVE",
"273 392 CURVE SMOOTH",
"326 392 OFFCURVE",
"361 357 OFFCURVE",
"361 305 CURVE SMOOTH",
"361 197 LINE SMOOTH",
"361 145 OFFCURVE",
"326 110 OFFCURVE",
"273 110 CURVE SMOOTH"
);
}
);
width = 547;
}
);
unicode = 006F;
},
{
color = 1;
glyphname = p;
lastChange = "2016-10-17 08:59:05 +0000";
layers = (
{
layerId = "262880E7-CFE1-4BDA-902E-E24798F3240A";
paths = (
{
closed = 1;
nodes = (
"396 -7 OFFCURVE",
"456 54 OFFCURVE",
"456 154 CURVE SMOOTH",
"456 346 LINE SMOOTH",
"456 446 OFFCURVE",
"396 507 OFFCURVE",
"298 507 CURVE SMOOTH",
"200 507 OFFCURVE",
"136 444 OFFCURVE",
"136 344 CURVE SMOOTH",
"136 156 LINE SMOOTH",
"136 56 OFFCURVE",
"200 -7 OFFCURVE",
"298 -7 CURVE SMOOTH"
);
},
{
closed = 1;
nodes = (
"156 -200 LINE",
"156 500 LINE",
"134 500 LINE",
"134 -200 LINE"
);
},
{
closed = 1;
nodes = (
"209 14 OFFCURVE",
"156 67 OFFCURVE",
"156 154 CURVE SMOOTH",
"156 346 LINE SMOOTH",
"156 432 OFFCURVE",
"209 485 OFFCURVE",
"295 485 CURVE SMOOTH",
"381 485 OFFCURVE",
"434 432 OFFCURVE",
"434 346 CURVE SMOOTH",
"434 154 LINE SMOOTH",
"434 67 OFFCURVE",
"381 14 OFFCURVE",
"295 14 CURVE SMOOTH"
);
}
);
width = 578;
},
{
layerId = "4F25946F-63AC-42D6-8D55-01CF6A99025B";
paths = (
{
closed = 1;
nodes = (
"468 -4 OFFCURVE",
"532 52 OFFCURVE",
"532 157 CURVE SMOOTH",
"532 347 LINE SMOOTH",
"532 441 OFFCURVE",
"457 504 OFFCURVE",
"344 504 CURVE",
"149 504 OFFCURVE",
"133 242 OFFCURVE",
"133 231 CURVE SMOOTH",
"133 217 LINE SMOOTH",
"133 117 OFFCURVE",
"224 -12 OFFCURVE",
"372 -7 CURVE SMOOTH"
);
},
{
closed = 1;
nodes = (
"238 -200 LINE",
"238 502 LINE",
"30 502 LINE",
"30 -200 LINE"
);
},
{
closed = 1;
nodes = (
"255 158 OFFCURVE",
"238 174 OFFCURVE",
"238 199 CURVE SMOOTH",
"238 291 LINE SMOOTH",
"238 316 OFFCURVE",
"255 332 OFFCURVE",
"281 332 CURVE SMOOTH",
"307 332 OFFCURVE",
"325 316 OFFCURVE",
"325 291 CURVE SMOOTH",
"325 199 LINE SMOOTH",
"325 174 OFFCURVE",
"307 158 OFFCURVE",
"281 158 CURVE SMOOTH"
);
}
);
width = 544;
},
{
layerId = "6256A6A1-72B9-4ADD-8383-8893F8BF5D61";
paths = (
{
closed = 1;
nodes = (
"440 -5 OFFCURVE",
"502 53 OFFCURVE",
"502 156 CURVE SMOOTH",
"502 347 LINE SMOOTH",
"502 443 OFFCURVE",
"434 505 OFFCURVE",
"328 505 CURVE SMOOTH",
"178 505 OFFCURVE",
"140 336 OFFCURVE",
"140 283 CURVE SMOOTH",
"140 189 LINE SMOOTH",
"140 89 OFFCURVE",
"219 -10 OFFCURVE",
"343 -7 CURVE SMOOTH"
);
},
{
closed = 1;
nodes = (
"206 -200 LINE",
"206 501 LINE",
"84 501 LINE",
"84 -200 LINE"
);
},
{
closed = 1;
nodes = (
"239 91 OFFCURVE",
"206 124 OFFCURVE",
"206 178 CURVE SMOOTH",
"206 317 LINE SMOOTH",
"206 370 OFFCURVE",
"239 403 OFFCURVE",
"293 403 CURVE SMOOTH",
"347 403 OFFCURVE",
"381 370 OFFCURVE",
"381 317 CURVE SMOOTH",
"381 178 LINE SMOOTH",
"381 124 OFFCURVE",
"347 91 OFFCURVE",
"293 91 CURVE SMOOTH"
);
}
);
width = 573;
}
);
unicode = 0070;
},
{
color = 1;
glyphname = r;
lastChange = "2016-10-17 08:59:03 +0000";
layers = (
{
layerId = "262880E7-CFE1-4BDA-902E-E24798F3240A";
paths = (
{
closed = 1;
nodes = (
"156 331 LINE",
"156 418 OFFCURVE",
"206 483 OFFCURVE",
"288 483 CURVE SMOOTH",
"298 483 OFFCURVE",
"315 479 OFFCURVE",
"324 475 CURVE",
"341 488 LINE",
"327 496 OFFCURVE",
"307 502 OFFCURVE",
"288 502 CURVE SMOOTH",
"193 502 OFFCURVE",
"140 429 OFFCURVE",
"140 331 CURVE"
);
},
{
closed = 1;
nodes = (
"156 -1 LINE",
"156 500 LINE",
"134 500 LINE",
"134 -1 LINE"
);
}
);
width = 437;
},
{
layerId = "4F25946F-63AC-42D6-8D55-01CF6A99025B";
paths = (
{
closed = 1;
nodes = (
"238 268 LINE",
"238 302 OFFCURVE",
"277 317 OFFCURVE",
"314 317 CURVE SMOOTH",
"332 317 OFFCURVE",
"367 310 OFFCURVE",
"372 301 CURVE",
"414 464 LINE",
"410 486 OFFCURVE",
"386 505 OFFCURVE",
"343 505 CURVE SMOOTH",
"228 505 OFFCURVE",
"174 382 OFFCURVE",
"174 268 CURVE"
);
},
{
closed = 1;
nodes = (
"238 0 LINE",
"238 500 LINE",
"30 500 LINE",
"30 0 LINE"
);
}
);
width = 379;
},
{
layerId = "6256A6A1-72B9-4ADD-8383-8893F8BF5D61";
paths = (
{
closed = 1;
nodes = (
"205 297 LINE",
"205 356 OFFCURVE",
"249 394 OFFCURVE",
"307 394 CURVE SMOOTH",
"321 394 OFFCURVE",
"348 389 OFFCURVE",
"355 382 CURVE",
"385 475 LINE",
"377 490 OFFCURVE",
"354 504 OFFCURVE",
"323 504 CURVE SMOOTH",
"217 504 OFFCURVE",
"148 404 OFFCURVE",
"148 297 CURVE"
);
},
{
closed = 1;
nodes = (
"205 -1 LINE",
"205 500 LINE",
"84 500 LINE",
"84 -1 LINE"
);
}
);
width = 435;
}
);
unicode = 0072;
},
{
color = 1;
glyphname = s;
lastChange = "2016-10-17 08:59:05 +0000";
layers = (
{
layerId = "262880E7-CFE1-4BDA-902E-E24798F3240A";
paths = (
{
closed = 1;
nodes = (
"368 -3 OFFCURVE",
"435 47 OFFCURVE",
"435 126 CURVE SMOOTH",
"435 214 OFFCURVE",
"351 237 OFFCURVE",
"271 265 CURVE SMOOTH",
"182 296 OFFCURVE",
"133 311 OFFCURVE",
"133 372 CURVE SMOOTH",
"133 437 OFFCURVE",
"189 484 OFFCURVE",
"272 484 CURVE SMOOTH",
"355 484 OFFCURVE",
"411 438 OFFCURVE",
"411 369 CURVE SMOOTH",
"411 368 LINE",
"433 368 LINE",
"433 369 LINE SMOOTH",
"433 451 OFFCURVE",
"369 503 OFFCURVE",
"272 503 CURVE SMOOTH",
"175 503 OFFCURVE",
"111 450 OFFCURVE",
"111 372 CURVE SMOOTH",
"111 290 OFFCURVE",
"182 271 OFFCURVE",
"267 241 CURVE SMOOTH",
"343 214 OFFCURVE",
"413 196 OFFCURVE",
"413 126 CURVE SMOOTH",
"413 61 OFFCURVE",
"354 17 OFFCURVE",
"270 17 CURVE SMOOTH",
"186 17 OFFCURVE",
"131 60 OFFCURVE",
"131 126 CURVE SMOOTH",
"131 127 LINE",
"109 127 LINE",
"109 126 LINE SMOOTH",
"109 48 OFFCURVE",
"172 -3 OFFCURVE",
"270 -3 CURVE SMOOTH"
);
}
);
width = 544;
},
{
layerId = "4F25946F-63AC-42D6-8D55-01CF6A99025B";
paths = (
{
closed = 1;
nodes = (
"386 -10 OFFCURVE",
"471 62 OFFCURVE",
"471 151 CURVE SMOOTH",
"471 216 OFFCURVE",
"426 270 OFFCURVE",
"335 296 CURVE SMOOTH",
"275 313 OFFCURVE",
"199 318 OFFCURVE",
"199 351 CURVE SMOOTH",
"199 364 OFFCURVE",
"212 378 OFFCURVE",
"232 378 CURVE SMOOTH",
"252 378 OFFCURVE",
"268 364 OFFCURVE",
"268 341 CURVE",
"269 331 LINE",
"463 331 LINE",
"463 341 LINE",
"459 439 OFFCURVE",
"374 510 OFFCURVE",
"228 510 CURVE SMOOTH",
"80 510 OFFCURVE",
"-4 437 OFFCURVE",
"-4 353 CURVE SMOOTH",
"-4 292 OFFCURVE",
"40 235 OFFCURVE",
"134 208 CURVE SMOOTH",
"190 192 OFFCURVE",
"262 187 OFFCURVE",
"262 149 CURVE SMOOTH",
"262 136 OFFCURVE",
"254 123 OFFCURVE",
"232 123 CURVE SMOOTH",
"213 123 OFFCURVE",
"198 133 OFFCURVE",
"194 155 CURVE SMOOTH",
"191 172 LINE",
"-5 172 LINE",
"-5 162 LINE",
"-5 66 OFFCURVE",
"86 -10 OFFCURVE",
"238 -10 CURVE SMOOTH"
);
}
);
width = 464;
},
{
layerId = "6256A6A1-72B9-4ADD-8383-8893F8BF5D61";
paths = (
{
closed = 1;
nodes = (
"381 -10 OFFCURVE",
"455 53 OFFCURVE",
"455 139 CURVE SMOOTH",
"455 214 OFFCURVE",
"402 260 OFFCURVE",
"317 288 CURVE SMOOTH",
"257 308 OFFCURVE",
"188 314 OFFCURVE",
"188 361 CURVE SMOOTH",
"188 389 OFFCURVE",
"214 416 OFFCURVE",
"256 416 CURVE SMOOTH",
"297 416 OFFCURVE",
"327 393 OFFCURVE",
"327 355 CURVE SMOOTH",
"327 348 LINE",
"449 348 LINE",
"449 355 LINE SMOOTH",
"449 445 OFFCURVE",
"375 510 OFFCURVE",
"255 510 CURVE SMOOTH",
"134 510 OFFCURVE",
"62 445 OFFCURVE",
"62 361 CURVE SMOOTH",
"62 291 OFFCURVE",
"113 246 OFFCURVE",
"199 217 CURVE SMOOTH",
"256 198 OFFCURVE",
"325 189 OFFCURVE",
"325 139 CURVE SMOOTH",
"325 106 OFFCURVE",
"296 84 OFFCURVE",
"255 84 CURVE SMOOTH",
"214 84 OFFCURVE",
"186 106 OFFCURVE",
"186 140 CURVE SMOOTH",
"186 151 LINE",
"60 151 LINE",
"60 145 LINE SMOOTH",
"60 56 OFFCURVE",
"137 -10 OFFCURVE",
"261 -10 CURVE SMOOTH"
);
}
);
width = 515;
}
);
unicode = 0073;
},
{
color = 1;
glyphname = t;
lastChange = "2016-10-17 08:59:04 +0000";
layers = (
{
layerId = "262880E7-CFE1-4BDA-902E-E24798F3240A";
paths = (
{
closed = 1;
nodes = (
"310 2 LINE",
"310 24 LINE",
"286 24 LINE SMOOTH",
"205 24 OFFCURVE",
"182 59 OFFCURVE",
"182 155 CURVE SMOOTH",
"182 479 LINE",
"296 479 LINE",
"296 500 LINE",
"182 500 LINE",
"182 610 LINE",
"160 610 LINE",
"160 500 LINE",
"96 500 LINE",
"96 479 LINE",
"160 479 LINE",
"160 155 LINE SMOOTH",
"160 45 OFFCURVE",
"192 2 OFFCURVE",
"286 2 CURVE SMOOTH"
);
}
);
width = 408;
},
{
layerId = "4F25946F-63AC-42D6-8D55-01CF6A99025B";
paths = (
{
closed = 1;
nodes = (
"293 1 LINE",
"299 181 LINE",
"296 181 LINE",
"258 177 OFFCURVE",
"236 172 OFFCURVE",
"236 203 CURVE SMOOTH",
"236 326 LINE",
"316 326 LINE",
"316 500 LINE",
"236 500 LINE",
"236 700 LINE",
"42 700 LINE",
"42 500 LINE",
"-2 500 LINE",
"-2 326 LINE",
"42 326 LINE",
"42 163 LINE SMOOTH",
"42 3 OFFCURVE",
"105 -24 OFFCURVE",
"287 1 CURVE"
);
}
);
width = 322;
},
{
layerId = "6256A6A1-72B9-4ADD-8383-8893F8BF5D61";
paths = (
{
closed = 1;
nodes = (
"311 1 LINE",
"314 108 LINE",
"301 108 LINE SMOOTH",
"243 108 OFFCURVE",
"221 120 OFFCURVE",
"221 181 CURVE SMOOTH",
"221 397 LINE",
"316 397 LINE",
"316 500 LINE",
"221 500 LINE",
"221 658 LINE",
"106 658 LINE",
"106 500 LINE",
"53 500 LINE",
"53 397 LINE",
"106 397 LINE",
"106 159 LINE SMOOTH",
"106 22 OFFCURVE",
"155 1 OFFCURVE",
"296 1 CURVE SMOOTH"
);
}
);
width = 377;
}
);
unicode = 0074;
},
{
color = 1;
glyphname = u;
lastChange = "2016-10-17 08:59:04 +0000";
layers = (
{
layerId = "262880E7-CFE1-4BDA-902E-E24798F3240A";
paths = (
{
closed = 1;
nodes = (
"386 -3 OFFCURVE",
"445 58 OFFCURVE",
"445 157 CURVE",
"428 157 LINE",
"428 70 OFFCURVE",
"375 17 OFFCURVE",
"289 17 CURVE SMOOTH",
"203 17 OFFCURVE",
"150 70 OFFCURVE",
"150 157 CURVE SMOOTH",
"150 500 LINE",
"128 500 LINE",
"128 156 LINE SMOOTH",
"128 57 OFFCURVE",
"189 -3 OFFCURVE",
"289 -3 CURVE SMOOTH"
);
},
{
closed = 1;
nodes = (
"450 0 LINE",
"450 500 LINE",
"428 500 LINE",
"428 0 LINE"
);
}
);
width = 584;
},
{
layerId = "4F25946F-63AC-42D6-8D55-01CF6A99025B";
paths = (
{
closed = 1;
nodes = (
"336 -2 OFFCURVE",
"383 96 OFFCURVE",
"383 196 CURVE",
"318 188 LINE",
"318 165 OFFCURVE",
"300 150 OFFCURVE",
"274 150 CURVE SMOOTH",
"248 150 OFFCURVE",
"231 165 OFFCURVE",
"231 188 CURVE SMOOTH",
"231 500 LINE",
"23 500 LINE",
"23 150 LINE SMOOTH",
"23 49 OFFCURVE",
"72 -2 OFFCURVE",
"183 -2 CURVE SMOOTH"
);
},
{
closed = 1;
nodes = (
"525 0 LINE",
"525 500 LINE",
"318 500 LINE",
"318 0 LINE"
);
}
);
width = 555;
},
{
layerId = "6256A6A1-72B9-4ADD-8383-8893F8BF5D61";
paths = (
{
closed = 1;
nodes = (
"366 -5 OFFCURVE",
"426 72 OFFCURVE",
"426 175 CURVE",
"375 173 LINE",
"375 122 OFFCURVE",
"340 88 OFFCURVE",
"287 88 CURVE SMOOTH",
"235 88 OFFCURVE",
"200 122 OFFCURVE",
"200 173 CURVE SMOOTH",
"200 500 LINE",
"78 500 LINE",
"78 153 LINE SMOOTH",
"78 56 OFFCURVE",
"146 -5 OFFCURVE",
"257 -5 CURVE SMOOTH"
);
},
{
closed = 1;
nodes = (
"497 0 LINE",
"497 500 LINE",
"375 500 LINE",
"375 0 LINE"
);
}
);
width = 581;
}
);
unicode = 0075;
},
{
color = 1;
glyphname = v;
lastChange = "2016-10-17 08:59:03 +0000";
layers = (
{
layerId = "262880E7-CFE1-4BDA-902E-E24798F3240A";
paths = (
{
closed = 1;
nodes = (
"286 3 LINE",
"451 500 LINE",
"429 500 LINE",
"275 38 LINE",
"121 500 LINE",
"99 500 LINE",
"264 3 LINE"
);
}
);
width = 550;
},
{
layerId = "4F25946F-63AC-42D6-8D55-01CF6A99025B";
paths = (
{
closed = 1;
nodes = (
"318 0 LINE",
"482 500 LINE",
"271 500 LINE",
"222 257 LINE",
"173 500 LINE",
"-38 500 LINE",
"126 0 LINE"
);
}
);
width = 444;
},
{
layerId = "6256A6A1-72B9-4ADD-8383-8893F8BF5D61";
paths = (
{
closed = 1;
nodes = (
"322 0 LINE",
"480 500 LINE",
"358 500 LINE",
"265 161 LINE",
"171 500 LINE",
"49 500 LINE",
"208 0 LINE"
);
}
);
width = 529;
}
);
unicode = 0076;
},
{
color = 1;
glyphname = w;
lastChange = "2016-10-17 08:59:04 +0000";
layers = (
{
layerId = "262880E7-CFE1-4BDA-902E-E24798F3240A";
paths = (
{
closed = 1;
nodes = (
"257 0 LINE",
"381 458 LINE",
"505 0 LINE",
"527 0 LINE",
"662 500 LINE",
"640 500 LINE",
"516 42 LINE",
"392 500 LINE",
"370 500 LINE",
"246 42 LINE",
"122 500 LINE",
"100 500 LINE",
"235 0 LINE"
);
}
);
width = 762;
},
{
layerId = "4F25946F-63AC-42D6-8D55-01CF6A99025B";
paths = (
{
closed = 1;
nodes = (
"283 0 LINE",
"316 240 LINE",
"353 0 LINE",
"543 0 LINE",
"663 500 LINE",
"469 500 LINE",
"436 287 LINE",
"400 500 LINE",
"230 500 LINE",
"195 287 LINE",
"160 500 LINE",
"-27 500 LINE",
"92 0 LINE"
);
}
);
width = 636;
},
{
layerId = "6256A6A1-72B9-4ADD-8383-8893F8BF5D61";
paths = (
{
closed = 1;
nodes = (
"289 0 LINE",
"365 341 LINE",
"442 0 LINE",
"554 0 LINE",
"681 500 LINE",
"567 500 LINE",
"492 173 LINE",
"415 500 LINE",
"313 500 LINE",
"237 173 LINE",
"161 500 LINE",
"50 500 LINE",
"177 0 LINE"
);
}
);
width = 731;
}
);
unicode = 0077;
},
{
color = 1;
glyphname = x;
lastChange = "2016-10-17 08:59:05 +0000";
layers = (
{
layerId = "262880E7-CFE1-4BDA-902E-E24798F3240A";
paths = (
{
closed = 1;
nodes = (
"429 501 LINE",
"275 267 LINE",
"121 501 LINE",
"99 501 LINE",
"264 250 LINE",
"99 -1 LINE",
"121 -1 LINE",
"275 233 LINE",
"429 -1 LINE",
"451 -1 LINE",
"286 250 LINE",
"451 501 LINE"
);
}
);
width = 550;
},
{
layerId = "4F25946F-63AC-42D6-8D55-01CF6A99025B";
paths = (
{
closed = 1;
nodes = (
"274 500 LINE",
"229 411 LINE",
"185 500 LINE",
"-37 500 LINE",
"121 250 LINE",
"-37 0 LINE",
"185 0 LINE",
"229 89 LINE",
"274 0 LINE",
"495 0 LINE",
"338 250 LINE",
"495 500 LINE"
);
}
);
width = 459;
},
{
associatedMasterId = "262880E7-CFE1-4BDA-902E-E24798F3240A";
layerId = "A7F0FF68-370D-4ABA-A088-97B4F33DE289";
name = "Light Oct 15 16, 02:53";
paths = (
{
closed = 1;
nodes = (
"368 501 LINE",
"390 501 LINE",
"60 -1 LINE",
"38 -1 LINE"
);
},
{
closed = 1;
nodes = (
"38 501 LINE",
"60 501 LINE",
"390 -1 LINE",
"368 -1 LINE"
);
}
);
width = 428;
},
{
associatedMasterId = "4F25946F-63AC-42D6-8D55-01CF6A99025B";
layerId = "C8E6816F-D14D-432C-92C0-4654658DD355";
name = "Bold Oct 15 16, 02:53";
paths = (
{
closed = 1;
nodes = (
"306 500 LINE",
"527 500 LINE",
"217 0 LINE",
"-5 0 LINE"
);
},
{
closed = 1;
nodes = (
"-5 500 LINE",
"217 500 LINE",
"527 0 LINE",
"306 0 LINE"
);
}
);
width = 522;
},
{
layerId = "6256A6A1-72B9-4ADD-8383-8893F8BF5D61";
paths = (
{
closed = 1;
nodes = (
"369 500 LINE",
"273 344 LINE",
"178 500 LINE",
"49 500 LINE",
"210 250 LINE",
"49 0 LINE",
"178 0 LINE",
"273 156 LINE",
"369 0 LINE",
"497 0 LINE",
"337 250 LINE",
"497 500 LINE"
);
}
);
width = 546;
}
);
unicode = 0078;
},
{
color = 1;
glyphname = y;
lastChange = "2016-10-17 08:59:04 +0000";
layers = (
{
layerId = "262880E7-CFE1-4BDA-902E-E24798F3240A";
paths = (
{
closed = 1;
nodes = (
"276 33 LINE",
"121 500 LINE",
"99 500 LINE",
"265 -1 LINE",
"243 -67 LINE SMOOTH",
"209 -169 OFFCURVE",
"186 -190 OFFCURVE",
"123 -190 CURVE",
"123 -211 LINE",
"198 -211 OFFCURVE",
"229 -183 OFFCURVE",
"265 -73 CURVE SMOOTH",
"453 500 LINE",
"431 500 LINE"
);
}
);
width = 552;
},
{
layerId = "4F25946F-63AC-42D6-8D55-01CF6A99025B";
paths = (
{
closed = 1;
nodes = (
"213 321 LINE",
"167 500 LINE",
"-41 500 LINE",
"122 106 LINE",
"114 82 LINE SMOOTH",
"101 42 OFFCURVE",
"86 30 OFFCURVE",
"28 30 CURVE",
"28 -128 LINE",
"194 -128 OFFCURVE",
"252 -72 OFFCURVE",
"292 35 CURVE SMOOTH",
"467 500 LINE",
"259 500 LINE"
);
}
);
width = 425;
},
{
layerId = "6256A6A1-72B9-4ADD-8383-8893F8BF5D61";
paths = (
{
closed = 1;
nodes = (
"266 187 LINE",
"170 500 LINE",
"48 500 LINE",
"212 56 LINE",
"198 13 LINE SMOOTH",
"175 -56 OFFCURVE",
"156 -72 OFFCURVE",
"96 -72 CURVE",
"96 -166 LINE",
"220 -166 OFFCURVE",
"265 -124 OFFCURVE",
"303 -15 CURVE SMOOTH",
"485 500 LINE",
"363 500 LINE"
);
}
);
width = 533;
}
);
unicode = 0079;
},
{
color = 1;
glyphname = z;
lastChange = "2016-10-17 08:59:03 +0000";
layers = (
{
layerId = "262880E7-CFE1-4BDA-902E-E24798F3240A";
paths = (
{
closed = 1;
nodes = (
"417 1 LINE",
"417 23 LINE",
"124 23 LINE",
"428 478 LINE",
"428 499 LINE",
"105 499 LINE",
"105 478 LINE",
"404 478 LINE",
"100 23 LINE",
"100 1 LINE"
);
}
);
width = 528;
},
{
layerId = "4F25946F-63AC-42D6-8D55-01CF6A99025B";
paths = (
{
closed = 1;
nodes = (
"426 10 LINE",
"426 157 LINE",
"251 157 LINE",
"430 348 LINE",
"430 496 LINE",
"9 496 LINE",
"9 348 LINE",
"197 347 LINE",
"10 157 LINE",
"9 10 LINE"
);
}
);
width = 438;
},
{
layerId = "6256A6A1-72B9-4ADD-8383-8893F8BF5D61";
paths = (
{
closed = 1;
nodes = (
"419 6 LINE",
"419 113 LINE",
"213 113 LINE",
"421 386 LINE",
"421 497 LINE",
"62 497 LINE",
"62 386 LINE",
"285 386 LINE",
"72 113 LINE",
"72 6 LINE"
);
}
);
width = 485;
}
);
unicode = 007A;
},
{
color = 1;
glyphname = zero;
lastChange = "2016-10-17 08:59:04 +0000";
layers = (
{
layerId = "262880E7-CFE1-4BDA-902E-E24798F3240A";
paths = (
{
closed = 1;
nodes = (
"418 -9 OFFCURVE",
"473 45 OFFCURVE",
"473 150 CURVE SMOOTH",
"473 550 LINE SMOOTH",
"473 655 OFFCURVE",
"418 709 OFFCURVE",
"313 709 CURVE SMOOTH",
"208 709 OFFCURVE",
"153 655 OFFCURVE",
"153 550 CURVE SMOOTH",
"153 150 LINE SMOOTH",
"153 45 OFFCURVE",
"208 -9 OFFCURVE",
"313 -9 CURVE SMOOTH"
);
},
{
closed = 1;
nodes = (
"222 11 OFFCURVE",
"175 58 OFFCURVE",
"175 150 CURVE SMOOTH",
"175 550 LINE SMOOTH",
"175 642 OFFCURVE",
"222 690 OFFCURVE",
"313 690 CURVE SMOOTH",
"404 690 OFFCURVE",
"451 642 OFFCURVE",
"451 550 CURVE SMOOTH",
"451 150 LINE SMOOTH",
"451 58 OFFCURVE",
"404 11 OFFCURVE",
"313 11 CURVE SMOOTH"
);
}
);
width = 626;
},
{
layerId = "4F25946F-63AC-42D6-8D55-01CF6A99025B";
paths = (
{
closed = 1;
nodes = (
"445 -10 OFFCURVE",
"533 73 OFFCURVE",
"533 233 CURVE SMOOTH",
"533 467 LINE SMOOTH",
"533 627 OFFCURVE",
"445 710 OFFCURVE",
"273 710 CURVE SMOOTH",
"101 710 OFFCURVE",
"13 627 OFFCURVE",
"13 467 CURVE SMOOTH",
"13 233 LINE SMOOTH",
"13 73 OFFCURVE",
"101 -10 OFFCURVE",
"273 -10 CURVE SMOOTH"
);
},
{
closed = 1;
nodes = (
"244 174 OFFCURVE",
"225 194 OFFCURVE",
"225 223 CURVE SMOOTH",
"225 477 LINE SMOOTH",
"225 506 OFFCURVE",
"244 526 OFFCURVE",
"273 526 CURVE SMOOTH",
"302 526 OFFCURVE",
"321 506 OFFCURVE",
"321 477 CURVE SMOOTH",
"321 223 LINE SMOOTH",
"321 194 OFFCURVE",
"302 174 OFFCURVE",
"273 174 CURVE SMOOTH"
);
}
);
width = 545;
},
{
layerId = "6256A6A1-72B9-4ADD-8383-8893F8BF5D61";
paths = (
{
closed = 1;
nodes = (
"454 -10 OFFCURVE",
"527 60 OFFCURVE",
"527 195 CURVE SMOOTH",
"527 505 LINE SMOOTH",
"527 640 OFFCURVE",
"454 710 OFFCURVE",
"313 710 CURVE SMOOTH",
"172 710 OFFCURVE",
"99 640 OFFCURVE",
"99 505 CURVE SMOOTH",
"99 195 LINE SMOOTH",
"99 60 OFFCURVE",
"172 -10 OFFCURVE",
"313 -10 CURVE SMOOTH"
);
},
{
closed = 1;
nodes = (
"255 98 OFFCURVE",
"223 131 OFFCURVE",
"223 189 CURVE SMOOTH",
"223 511 LINE SMOOTH",
"223 569 OFFCURVE",
"255 602 OFFCURVE",
"313 602 CURVE SMOOTH",
"371 602 OFFCURVE",
"403 569 OFFCURVE",
"403 511 CURVE SMOOTH",
"403 189 LINE SMOOTH",
"403 131 OFFCURVE",
"371 98 OFFCURVE",
"313 98 CURVE SMOOTH"
);
}
);
width = 626;
}
);
unicode = 0030;
},
{
color = 1;
glyphname = one;
lastChange = "2016-10-17 08:59:05 +0000";
layers = (
{
layerId = "4F25946F-63AC-42D6-8D55-01CF6A99025B";
paths = (
{
closed = 1;
nodes = (
"267 0 LINE",
"267 700 LINE",
"55 700 LINE",
"55 0 LINE"
);
},
{
closed = 1;
nodes = (
"-8 512 LINE",
"55 512 LINE",
"55 700 LINE",
"-8 674 LINE"
);
}
);
width = 303;
},
{
layerId = "262880E7-CFE1-4BDA-902E-E24798F3240A";
paths = (
{
closed = 1;
nodes = (
"186 0 LINE",
"186 700 LINE",
"164 700 LINE",
"164 0 LINE"
);
},
{
closed = 1;
nodes = (
"123 646 LINE",
"164 662 LINE",
"164 700 LINE",
"123 668 LINE"
);
}
);
width = 346;
},
{
layerId = "6256A6A1-72B9-4ADD-8383-8893F8BF5D61";
paths = (
{
closed = 1;
nodes = (
"254 0 LINE",
"254 700 LINE",
"130 700 LINE",
"130 0 LINE"
);
},
{
closed = 1;
nodes = (
"77 574 LINE",
"130 582 LINE",
"130 700 LINE",
"77 671 LINE"
);
}
);
width = 364;
}
);
unicode = 0031;
},
{
color = 1;
glyphname = two;
lastChange = "2016-10-17 08:59:03 +0000";
layers = (
{
layerId = "4F25946F-63AC-42D6-8D55-01CF6A99025B";
paths = (
{
closed = 1;
nodes = (
"497 0 LINE",
"497 188 LINE",
"250 188 LINE",
"481 447 LINE",
"498 475 OFFCURVE",
"509 500 OFFCURVE",
"509 534 CURVE SMOOTH",
"509 633 OFFCURVE",
"414 700 OFFCURVE",
"257 700 CURVE SMOOTH",
"98 700 OFFCURVE",
"-3 631 OFFCURVE",
"-3 519 CURVE",
"-3 454 LINE",
"205 455 LINE",
"205 481 LINE",
"205 506 OFFCURVE",
"222 523 OFFCURVE",
"247 523 CURVE SMOOTH",
"275 523 OFFCURVE",
"287 502 OFFCURVE",
"287 489 CURVE SMOOTH",
"287 474 OFFCURVE",
"273 455 OFFCURVE",
"248 426 CURVE",
"0 171 LINE",
"0 0 LINE"
);
}
);
width = 502;
},
{
layerId = "262880E7-CFE1-4BDA-902E-E24798F3240A";
paths = (
{
closed = 1;
nodes = (
"463 0 LINE",
"463 22 LINE",
"160 22 LINE",
"400 364 LINE SMOOTH",
"438 419 OFFCURVE",
"462 470 OFFCURVE",
"462 530 CURVE SMOOTH",
"462 615 OFFCURVE",
"413 710 OFFCURVE",
"299 710 CURVE SMOOTH",
"194 710 OFFCURVE",
"131 635 OFFCURVE",
"131 500 CURVE",
"131 479 LINE",
"152 479 LINE",
"152 500 LINE SMOOTH",
"152 618 OFFCURVE",
"207 690 OFFCURVE",
"298 690 CURVE SMOOTH",
"386 690 OFFCURVE",
"441 622 OFFCURVE",
"441 530 CURVE SMOOTH",
"441 478 OFFCURVE",
"423 434 OFFCURVE",
"395 395 CURVE SMOOTH",
"132 21 LINE",
"131 0 LINE"
);
}
);
width = 595;
},
{
layerId = "6256A6A1-72B9-4ADD-8383-8893F8BF5D61";
paths = (
{
closed = 1;
nodes = (
"507 0 LINE",
"507 111 LINE",
"234 111 LINE",
"467 410 LINE SMOOTH",
"497 448 OFFCURVE",
"513 486 OFFCURVE",
"513 532 CURVE SMOOTH",
"513 625 OFFCURVE",
"439 705 OFFCURVE",
"302 705 CURVE SMOOTH",
"168 705 OFFCURVE",
"85 633 OFFCURVE",
"85 510 CURVE",
"85 466 LINE",
"206 466 LINE",
"206 490 LINE SMOOTH",
"206 558 OFFCURVE",
"240 600 OFFCURVE",
"296 600 CURVE SMOOTH",
"352 600 OFFCURVE",
"384 558 OFFCURVE",
"384 508 CURVE SMOOTH",
"384 476 OFFCURVE",
"368 445 OFFCURVE",
"342 412 CURVE SMOOTH",
"87 101 LINE",
"86 0 LINE"
);
}
);
width = 598;
}
);
unicode = 0032;
},
{
color = 1;
glyphname = eight;
lastChange = "2016-10-17 08:59:04 +0000";
layers = (
{
layerId = "262880E7-CFE1-4BDA-902E-E24798F3240A";
paths = (
{
closed = 1;
nodes = (
"411 364 OFFCURVE",
"466 418 OFFCURVE",
"466 523 CURVE SMOOTH",
"466 548 LINE SMOOTH",
"466 653 OFFCURVE",
"411 707 OFFCURVE",
"306 707 CURVE SMOOTH",
"201 707 OFFCURVE",
"146 653 OFFCURVE",
"146 548 CURVE SMOOTH",
"146 523 LINE SMOOTH",
"146 418 OFFCURVE",
"201 364 OFFCURVE",
"306 364 CURVE SMOOTH"
);
},
{
closed = 1;
nodes = (
"215 384 OFFCURVE",
"168 431 OFFCURVE",
"168 523 CURVE SMOOTH",
"168 548 LINE SMOOTH",
"168 640 OFFCURVE",
"215 688 OFFCURVE",
"306 688 CURVE SMOOTH",
"397 688 OFFCURVE",
"444 640 OFFCURVE",
"444 548 CURVE SMOOTH",
"444 523 LINE SMOOTH",
"444 431 OFFCURVE",
"397 384 OFFCURVE",
"306 384 CURVE SMOOTH"
);
},
{
closed = 1;
nodes = (
"411 -18 OFFCURVE",
"466 36 OFFCURVE",
"466 141 CURVE SMOOTH",
"466 225 LINE SMOOTH",
"466 330 OFFCURVE",
"411 384 OFFCURVE",
"306 384 CURVE SMOOTH",
"201 384 OFFCURVE",
"146 330 OFFCURVE",
"146 225 CURVE SMOOTH",
"146 141 LINE SMOOTH",
"146 36 OFFCURVE",
"201 -18 OFFCURVE",
"306 -18 CURVE SMOOTH"
);
},
{
closed = 1;
nodes = (
"215 2 OFFCURVE",
"168 49 OFFCURVE",
"168 141 CURVE SMOOTH",
"168 225 LINE SMOOTH",
"168 317 OFFCURVE",
"215 365 OFFCURVE",
"306 365 CURVE SMOOTH",
"397 365 OFFCURVE",
"444 317 OFFCURVE",
"444 225 CURVE SMOOTH",
"444 141 LINE SMOOTH",
"444 49 OFFCURVE",
"397 2 OFFCURVE",
"306 2 CURVE SMOOTH"
);
}
);
width = 612;
},
{
layerId = "4F25946F-63AC-42D6-8D55-01CF6A99025B";
paths = (
{
closed = 1;
nodes = (
"299 337 OFFCURVE",
"490 343 OFFCURVE",
"490 498 CURVE",
"490 507 LINE",
"488 641 OFFCURVE",
"407 711 OFFCURVE",
"254 711 CURVE",
"100 711 OFFCURVE",
"20 650 OFFCURVE",
"20 516 CURVE",
"20 507 LINE",
"21 344 OFFCURVE",
"201 337 OFFCURVE",
"254 337 CURVE SMOOTH"
);
},
{
closed = 1;
nodes = (
"228 452 OFFCURVE",
"211 468 OFFCURVE",
"211 493 CURVE SMOOTH",
"211 537 LINE SMOOTH",
"211 562 OFFCURVE",
"228 578 OFFCURVE",
"254 578 CURVE SMOOTH",
"280 578 OFFCURVE",
"298 562 OFFCURVE",
"298 537 CURVE SMOOTH",
"298 493 LINE SMOOTH",
"298 468 OFFCURVE",
"280 452 OFFCURVE",
"254 452 CURVE SMOOTH"
);
},
{
closed = 1;
nodes = (
"429 -5 OFFCURVE",
"510 77 OFFCURVE",
"510 202 CURVE",
"510 231 LINE",
"510 324 OFFCURVE",
"419 455 OFFCURVE",
"255 401 CURVE",
"97 455 OFFCURVE",
"0 316 OFFCURVE",
"0 231 CURVE",
"0 202 LINE",
"1 69 OFFCURVE",
"87 -5 OFFCURVE",
"254 -5 CURVE SMOOTH"
);
},
{
closed = 1;
nodes = (
"228 143 OFFCURVE",
"211 159 OFFCURVE",
"211 184 CURVE SMOOTH",
"211 262 LINE SMOOTH",
"211 287 OFFCURVE",
"228 303 OFFCURVE",
"254 303 CURVE",
"280 303 OFFCURVE",
"298 287 OFFCURVE",
"298 262 CURVE SMOOTH",
"298 184 LINE SMOOTH",
"298 159 OFFCURVE",
"280 143 OFFCURVE",
"254 143 CURVE SMOOTH"
);
}
);
width = 510;
},
{
associatedMasterId = "4F25946F-63AC-42D6-8D55-01CF6A99025B";
layerId = "9541491C-EA7C-4850-9E65-38E203544E44";
name = "Medium {91,100}";
paths = (
{
closed = 1;
nodes = (
"372 344 OFFCURVE",
"442 407 OFFCURVE",
"442 514 CURVE SMOOTH",
"442 532 LINE SMOOTH",
"442 643 OFFCURVE",
"372 709 OFFCURVE",
"254 709 CURVE SMOOTH",
"135 709 OFFCURVE",
"65 645 OFFCURVE",
"65 536 CURVE SMOOTH",
"65 517 LINE SMOOTH",
"66 408 OFFCURVE",
"136 344 OFFCURVE",
"254 344 CURVE SMOOTH"
);
},
{
closed = 1;
nodes = (
"193 409 OFFCURVE",
"152 450 OFFCURVE",
"152 511 CURVE SMOOTH",
"152 540 LINE SMOOTH",
"152 601 OFFCURVE",
"193 642 OFFCURVE",
"254 642 CURVE SMOOTH",
"315 642 OFFCURVE",
"356 601 OFFCURVE",
"356 540 CURVE SMOOTH",
"356 511 LINE SMOOTH",
"356 450 OFFCURVE",
"315 409 OFFCURVE",
"254 409 CURVE SMOOTH"
);
},
{
closed = 1;
nodes = (
"377 -13 OFFCURVE",
"450 53 OFFCURVE",
"450 164 CURVE SMOOTH",
"450 227 LINE SMOOTH",
"450 350 OFFCURVE",
"377 410 OFFCURVE",
"254 390 CURVE SMOOTH",
"131 411 OFFCURVE",
"58 350 OFFCURVE",
"58 227 CURVE SMOOTH",
"58 164 LINE SMOOTH",
"58 53 OFFCURVE",
"131 -13 OFFCURVE",
"254 -13 CURVE SMOOTH"
);
},
{
closed = 1;
nodes = (
"193 61 OFFCURVE",
"152 102 OFFCURVE",
"152 163 CURVE SMOOTH",
"152 242 LINE SMOOTH",
"152 303 OFFCURVE",
"193 344 OFFCURVE",
"254 344 CURVE SMOOTH",
"315 344 OFFCURVE",
"356 303 OFFCURVE",
"356 242 CURVE SMOOTH",
"356 163 LINE SMOOTH",
"356 102 OFFCURVE",
"315 61 OFFCURVE",
"254 61 CURVE SMOOTH"
);
}
);
width = 508;
},
{
layerId = "6256A6A1-72B9-4ADD-8383-8893F8BF5D61";
paths = (
{
closed = 1;
nodes = (
"451 342 OFFCURVE",
"551 391 OFFCURVE",
"551 510 CURVE SMOOTH",
"551 526 LINE SMOOTH",
"551 642 OFFCURVE",
"478 710 OFFCURVE",
"351 710 CURVE SMOOTH",
"223 710 OFFCURVE",
"151 646 OFFCURVE",
"151 531 CURVE SMOOTH",
"151 514 LINE SMOOTH",
"152 392 OFFCURVE",
"249 342 OFFCURVE",
"351 342 CURVE SMOOTH"
);
},
{
closed = 1;
nodes = (
"299 420 OFFCURVE",
"264 455 OFFCURVE",
"264 506 CURVE SMOOTH",
"264 539 LINE SMOOTH",
"264 591 OFFCURVE",
"299 626 OFFCURVE",
"351 626 CURVE SMOOTH",
"403 626 OFFCURVE",
"438 591 OFFCURVE",
"438 539 CURVE SMOOTH",
"438 506 LINE SMOOTH",
"438 455 OFFCURVE",
"403 420 OFFCURVE",
"351 420 CURVE SMOOTH"
);
},
{
closed = 1;
nodes = (
"487 -11 OFFCURVE",
"562 59 OFFCURVE",
"562 174 CURVE SMOOTH",
"562 228 LINE SMOOTH",
"562 343 OFFCURVE",
"485 421 OFFCURVE",
"351 393 CURVE SMOOTH",
"219 422 OFFCURVE",
"140 341 OFFCURVE",
"140 228 CURVE SMOOTH",
"140 174 LINE SMOOTH",
"141 57 OFFCURVE",
"217 -11 OFFCURVE",
"351 -11 CURVE SMOOTH"
);
},
{
closed = 1;
nodes = (
"299 82 OFFCURVE",
"264 116 OFFCURVE",
"264 168 CURVE SMOOTH",
"264 247 LINE SMOOTH",
"264 299 OFFCURVE",
"299 334 OFFCURVE",
"351 334 CURVE SMOOTH",
"403 334 OFFCURVE",
"438 299 OFFCURVE",
"438 247 CURVE SMOOTH",
"438 168 LINE SMOOTH",
"438 116 OFFCURVE",
"403 82 OFFCURVE",
"351 82 CURVE SMOOTH"
);
}
);
width = 702;
}
);
unicode = 0038;
},
{
color = 1;
glyphname = colon;
lastChange = "2016-10-17 08:59:03 +0000";
layers = (
{
layerId = "262880E7-CFE1-4BDA-902E-E24798F3240A";
paths = (
{
closed = 1;
nodes = (
"231 37 OFFCURVE",
"250 55 OFFCURVE",
"250 78 CURVE SMOOTH",
"250 100 OFFCURVE",
"231 118 OFFCURVE",
"209 118 CURVE SMOOTH",
"187 118 OFFCURVE",
"168 100 OFFCURVE",
"168 78 CURVE SMOOTH",
"168 55 OFFCURVE",
"186 37 OFFCURVE",
"209 37 CURVE SMOOTH"
);
},
{
closed = 1;
nodes = (
"231 350 OFFCURVE",
"250 368 OFFCURVE",
"250 391 CURVE SMOOTH",
"250 413 OFFCURVE",
"231 431 OFFCURVE",
"209 431 CURVE SMOOTH",
"187 431 OFFCURVE",
"168 413 OFFCURVE",
"168 391 CURVE SMOOTH",
"168 368 OFFCURVE",
"186 350 OFFCURVE",
"209 350 CURVE SMOOTH"
);
}
);
width = 418;
},
{
layerId = "4F25946F-63AC-42D6-8D55-01CF6A99025B";
paths = (
{
closed = 1;
nodes = (
"175 -6 OFFCURVE",
"224 40 OFFCURVE",
"224 99 CURVE",
"224 156 OFFCURVE",
"175 202 OFFCURVE",
"118 202 CURVE SMOOTH",
"61 202 OFFCURVE",
"12 156 OFFCURVE",
"12 99 CURVE SMOOTH",
"12 40 OFFCURVE",
"59 -6 OFFCURVE",
"118 -6 CURVE SMOOTH"
);
},
{
closed = 1;
nodes = (
"175 288 OFFCURVE",
"224 334 OFFCURVE",
"224 393 CURVE",
"224 450 OFFCURVE",
"175 496 OFFCURVE",
"118 496 CURVE SMOOTH",
"61 496 OFFCURVE",
"12 450 OFFCURVE",
"12 393 CURVE SMOOTH",
"12 334 OFFCURVE",
"59 288 OFFCURVE",
"118 288 CURVE SMOOTH"
);
}
);
width = 236;
},
{
layerId = "6256A6A1-72B9-4ADD-8383-8893F8BF5D61";
paths = (
{
closed = 1;
nodes = (
"231 14 OFFCURVE",
"266 47 OFFCURVE",
"266 89 CURVE SMOOTH",
"266 130 OFFCURVE",
"231 163 OFFCURVE",
"190 163 CURVE SMOOTH",
"149 163 OFFCURVE",
"114 130 OFFCURVE",
"114 89 CURVE SMOOTH",
"114 47 OFFCURVE",
"148 14 OFFCURVE",
"190 14 CURVE SMOOTH"
);
},
{
closed = 1;
nodes = (
"231 317 OFFCURVE",
"266 350 OFFCURVE",
"266 392 CURVE SMOOTH",
"266 433 OFFCURVE",
"231 466 OFFCURVE",
"190 466 CURVE SMOOTH",
"149 466 OFFCURVE",
"114 433 OFFCURVE",
"114 392 CURVE SMOOTH",
"114 350 OFFCURVE",
"148 317 OFFCURVE",
"190 317 CURVE SMOOTH"
);
}
);
width = 380;
}
);
unicode = 003A;
},
{
color = 1;
glyphname = comma;
lastChange = "2016-10-17 08:59:04 +0000";
layers = (
{
layerId = "262880E7-CFE1-4BDA-902E-E24798F3240A";
paths = (
{
closed = 1;
nodes = (
"239 153 LINE",
"213 153 LINE",
"163 -66 LINE",
"184 -66 LINE"
);
}
);
width = 401;
},
{
layerId = "4F25946F-63AC-42D6-8D55-01CF6A99025B";
paths = (
{
closed = 1;
nodes = (
"232 143 LINE",
"52 142 LINE",
"33 -86 LINE",
"181 -86 LINE"
);
}
);
width = 250;
},
{
layerId = "6256A6A1-72B9-4ADD-8383-8893F8BF5D61";
paths = (
{
closed = 1;
nodes = (
"261 148 LINE",
"153 147 LINE",
"120 -77 LINE",
"209 -77 LINE"
);
}
);
width = 373;
}
);
unicode = 002C;
},
{
color = 1;
glyphname = exclam;
lastChange = "2016-10-17 08:59:04 +0000";
layers = (
{
layerId = "262880E7-CFE1-4BDA-902E-E24798F3240A";
paths = (
{
closed = 1;
nodes = (
"212 220 LINE",
"212 700 LINE",
"190 700 LINE",
"190 220 LINE"
);
},
{
closed = 1;
nodes = (
"220 5 OFFCURVE",
"239 23 OFFCURVE",
"239 46 CURVE SMOOTH",
"239 68 OFFCURVE",
"220 86 OFFCURVE",
"198 86 CURVE SMOOTH",
"176 86 OFFCURVE",
"157 68 OFFCURVE",
"157 46 CURVE SMOOTH",
"157 23 OFFCURVE",
"175 5 OFFCURVE",
"198 5 CURVE SMOOTH"
);
}
);
width = 401;
},
{
layerId = "4F25946F-63AC-42D6-8D55-01CF6A99025B";
paths = (
{
closed = 1;
nodes = (
"204 250 LINE",
"234 700 LINE",
"26 700 LINE",
"56 250 LINE"
);
},
{
closed = 1;
nodes = (
"185 -6 OFFCURVE",
"234 40 OFFCURVE",
"234 99 CURVE",
"234 156 OFFCURVE",
"185 202 OFFCURVE",
"128 202 CURVE SMOOTH",
"71 202 OFFCURVE",
"22 156 OFFCURVE",
"22 99 CURVE SMOOTH",
"22 40 OFFCURVE",
"69 -6 OFFCURVE",
"128 -6 CURVE SMOOTH"
);
}
);
width = 259;
},
{
layerId = "6256A6A1-72B9-4ADD-8383-8893F8BF5D61";
paths = (
{
closed = 1;
nodes = (
"235 236 LINE",
"251 700 LINE",
"130 700 LINE",
"146 236 LINE"
);
},
{
closed = 1;
nodes = (
"229 -1 OFFCURVE",
"264 32 OFFCURVE",
"264 74 CURVE SMOOTH",
"264 115 OFFCURVE",
"229 148 OFFCURVE",
"188 148 CURVE SMOOTH",
"147 148 OFFCURVE",
"112 115 OFFCURVE",
"112 74 CURVE SMOOTH",
"112 32 OFFCURVE",
"146 -1 OFFCURVE",
"188 -1 CURVE SMOOTH"
);
}
);
width = 380;
}
);
unicode = 0021;
},
{
color = 1;
glyphname = period;
lastChange = "2016-10-17 08:59:04 +0000";
layers = (
{
layerId = "262880E7-CFE1-4BDA-902E-E24798F3240A";
paths = (
{
closed = 1;
nodes = (
"242 5 OFFCURVE",
"261 23 OFFCURVE",
"261 46 CURVE SMOOTH",
"261 68 OFFCURVE",
"242 86 OFFCURVE",
"220 86 CURVE SMOOTH",
"198 86 OFFCURVE",
"179 68 OFFCURVE",
"179 46 CURVE SMOOTH",
"179 23 OFFCURVE",
"197 5 OFFCURVE",
"220 5 CURVE SMOOTH"
);
}
);
width = 440;
},
{
layerId = "4F25946F-63AC-42D6-8D55-01CF6A99025B";
paths = (
{
closed = 1;
nodes = (
"184 -6 OFFCURVE",
"233 40 OFFCURVE",
"233 99 CURVE",
"233 156 OFFCURVE",
"184 202 OFFCURVE",
"127 202 CURVE SMOOTH",
"70 202 OFFCURVE",
"21 156 OFFCURVE",
"21 99 CURVE SMOOTH",
"21 40 OFFCURVE",
"68 -6 OFFCURVE",
"127 -6 CURVE SMOOTH"
);
}
);
width = 253;
},
{
layerId = "6256A6A1-72B9-4ADD-8383-8893F8BF5D61";
paths = (
{
closed = 1;
nodes = (
"240 -1 OFFCURVE",
"275 32 OFFCURVE",
"275 74 CURVE SMOOTH",
"275 115 OFFCURVE",
"240 148 OFFCURVE",
"199 148 CURVE SMOOTH",
"158 148 OFFCURVE",
"123 115 OFFCURVE",
"123 74 CURVE SMOOTH",
"123 32 OFFCURVE",
"156 -1 OFFCURVE",
"199 -1 CURVE SMOOTH"
);
}
);
width = 398;
}
);
unicode = 002E;
},
{
color = 1;
glyphname = question;
lastChange = "2016-10-17 08:59:05 +0000";
layers = (
{
layerId = "4F25946F-63AC-42D6-8D55-01CF6A99025B";
paths = (
{
closed = 1;
nodes = (
"313 223 LINE",
"313 238 OFFCURVE",
"313 256 OFFCURVE",
"313 262 CURVE SMOOTH",
"313 330 OFFCURVE",
"469 329 OFFCURVE",
"469 494 CURVE SMOOTH",
"469 629 OFFCURVE",
"371 710 OFFCURVE",
"225 710 CURVE SMOOTH",
"70 710 OFFCURVE",
"-33 618 OFFCURVE",
"-33 479 CURVE SMOOTH",
"-33 474 LINE",
"179 464 LINE",
"179 479 LINE SMOOTH",
"179 502 OFFCURVE",
"195 518 OFFCURVE",
"219 518 CURVE SMOOTH",
"240 518 OFFCURVE",
"254 506 OFFCURVE",
"254 487 CURVE SMOOTH",
"254 424 OFFCURVE",
"109 423 OFFCURVE",
"109 290 CURVE SMOOTH",
"109 268 OFFCURVE",
"109 261 OFFCURVE",
"109 224 CURVE"
);
},
{
closed = 1;
nodes = (
"273 -6 OFFCURVE",
"322 40 OFFCURVE",
"322 99 CURVE",
"322 156 OFFCURVE",
"273 202 OFFCURVE",
"216 202 CURVE SMOOTH",
"159 202 OFFCURVE",
"110 156 OFFCURVE",
"110 99 CURVE SMOOTH",
"110 40 OFFCURVE",
"157 -6 OFFCURVE",
"216 -6 CURVE SMOOTH"
);
}
);
width = 447;
},
{
layerId = "262880E7-CFE1-4BDA-902E-E24798F3240A";
paths = (
{
closed = 1;
nodes = (
"335 239 LINE",
"305 243 OFFCURVE",
"290 254 OFFCURVE",
"290 275 CURVE SMOOTH",
"290 346 OFFCURVE",
"471 378 OFFCURVE",
"471 546 CURVE SMOOTH",
"471 645 OFFCURVE",
"408 709 OFFCURVE",
"314 709 CURVE SMOOTH",
"219 709 OFFCURVE",
"155 645 OFFCURVE",
"155 550 CURVE SMOOTH",
"155 500 LINE",
"177 500 LINE",
"177 550 LINE SMOOTH",
"177 633 OFFCURVE",
"232 688 OFFCURVE",
"314 688 CURVE SMOOTH",
"395 688 OFFCURVE",
"449 633 OFFCURVE",
"449 549 CURVE SMOOTH",
"449 395 OFFCURVE",
"266 364 OFFCURVE",
"266 271 CURVE SMOOTH",
"266 235 OFFCURVE",
"294 213 OFFCURVE",
"335 215 CURVE"
);
},
{
closed = 1;
nodes = (
"321 5 OFFCURVE",
"340 23 OFFCURVE",
"340 46 CURVE SMOOTH",
"340 68 OFFCURVE",
"321 86 OFFCURVE",
"299 86 CURVE SMOOTH",
"277 86 OFFCURVE",
"258 68 OFFCURVE",
"258 46 CURVE SMOOTH",
"258 23 OFFCURVE",
"276 5 OFFCURVE",
"299 5 CURVE SMOOTH"
);
}
);
width = 627;
},
{
associatedMasterId = "4F25946F-63AC-42D6-8D55-01CF6A99025B";
layerId = "E56F6CC4-F9B5-46E1-BC01-FC7B34A3882B";
name = "DemiBold {119,100}";
paths = (
{
closed = 1;
nodes = (
"344 261 LINE",
"333 262 OFFCURVE",
"324 261 OFFCURVE",
"324 276 CURVE SMOOTH",
"324 341 OFFCURVE",
"489 355 OFFCURVE",
"489 519 CURVE SMOOTH",
"489 634 OFFCURVE",
"409 710 OFFCURVE",
"286 710 CURVE SMOOTH",
"161 710 OFFCURVE",
"74 630 OFFCURVE",
"74 512 CURVE SMOOTH",
"74 486 LINE",
"198 481 LINE",
"198 512 LINE SMOOTH",
"198 562 OFFCURVE",
"231 597 OFFCURVE",
"283 597 CURVE SMOOTH",
"333 597 OFFCURVE",
"364 565 OFFCURVE",
"364 516 CURVE SMOOTH",
"364 401 OFFCURVE",
"194 408 OFFCURVE",
"194 270 CURVE SMOOTH",
"194 214 OFFCURVE",
"222 166 OFFCURVE",
"332 182 CURVE"
);
},
{
closed = 1;
nodes = (
"313 -1 OFFCURVE",
"348 32 OFFCURVE",
"348 74 CURVE SMOOTH",
"348 115 OFFCURVE",
"313 148 OFFCURVE",
"272 148 CURVE SMOOTH",
"232 148 OFFCURVE",
"197 115 OFFCURVE",
"197 74 CURVE SMOOTH",
"197 32 OFFCURVE",
"230 -1 OFFCURVE",
"272 -1 CURVE SMOOTH"
);
}
);
width = 539;
},
{
layerId = "6256A6A1-72B9-4ADD-8383-8893F8BF5D61";
paths = (
{
closed = 1;
nodes = (
"424 261 LINE",
"413 262 OFFCURVE",
"404 261 OFFCURVE",
"404 276 CURVE SMOOTH",
"404 341 OFFCURVE",
"569 355 OFFCURVE",
"569 519 CURVE SMOOTH",
"569 634 OFFCURVE",
"489 710 OFFCURVE",
"366 710 CURVE SMOOTH",
"241 710 OFFCURVE",
"154 630 OFFCURVE",
"154 512 CURVE SMOOTH",
"154 486 LINE",
"278 481 LINE",
"278 512 LINE SMOOTH",
"278 562 OFFCURVE",
"311 597 OFFCURVE",
"363 597 CURVE SMOOTH",
"413 597 OFFCURVE",
"444 565 OFFCURVE",
"444 516 CURVE SMOOTH",
"444 401 OFFCURVE",
"274 408 OFFCURVE",
"274 270 CURVE SMOOTH",
"274 214 OFFCURVE",
"302 166 OFFCURVE",
"412 182 CURVE"
);
},
{
closed = 1;
nodes = (
"393 -1 OFFCURVE",
"428 32 OFFCURVE",
"428 74 CURVE SMOOTH",
"428 115 OFFCURVE",
"393 148 OFFCURVE",
"352 148 CURVE SMOOTH",
"312 148 OFFCURVE",
"277 115 OFFCURVE",
"277 74 CURVE SMOOTH",
"277 32 OFFCURVE",
"310 -1 OFFCURVE",
"352 -1 CURVE SMOOTH"
);
}
);
width = 725;
}
);
unicode = 003F;
},
{
color = 1;
glyphname = quotedbl;
lastChange = "2016-10-17 08:59:03 +0000";
layers = (
{
layerId = "262880E7-CFE1-4BDA-902E-E24798F3240A";
paths = (
{
closed = 1;
nodes = (
"319 501 LINE",
"319 693 LINE",
"297 693 LINE",
"297 501 LINE"
);
},
{
closed = 1;
nodes = (
"209 501 LINE",
"209 693 LINE",
"187 693 LINE",
"187 501 LINE"
);
}
);
width = 506;
},
{
layerId = "4F25946F-63AC-42D6-8D55-01CF6A99025B";
paths = (
{
closed = 1;
nodes = (
"500 481 LINE",
"510 693 LINE",
"308 693 LINE",
"316 481 LINE"
);
},
{
closed = 1;
nodes = (
"230 481 LINE",
"240 693 LINE",
"38 693 LINE",
"48 481 LINE"
);
}
);
width = 548;
},
{
layerId = "6256A6A1-72B9-4ADD-8383-8893F8BF5D61";
paths = (
{
closed = 1;
nodes = (
"443 490 LINE",
"449 693 LINE",
"330 693 LINE",
"334 490 LINE"
);
},
{
closed = 1;
nodes = (
"247 490 LINE",
"253 693 LINE",
"134 693 LINE",
"140 490 LINE"
);
}
);
width = 583;
}
);
unicode = 0022;
},
{
color = 1;
glyphname = quotesingle;
lastChange = "2016-10-17 08:59:04 +0000";
layers = (
{
layerId = "262880E7-CFE1-4BDA-902E-E24798F3240A";
paths = (
{
closed = 1;
nodes = (
"209 697 LINE",
"187 697 LINE",
"187 507 LINE",
"209 507 LINE"
);
}
);
width = 396;
},
{
layerId = "4F25946F-63AC-42D6-8D55-01CF6A99025B";
paths = (
{
closed = 1;
nodes = (
"222 699 LINE",
"38 699 LINE",
"48 452 LINE",
"212 452 LINE"
);
}
);
width = 260;
},
{
layerId = "6256A6A1-72B9-4ADD-8383-8893F8BF5D61";
paths = (
{
closed = 1;
nodes = (
"243 698 LINE",
"134 698 LINE",
"140 478 LINE",
"238 478 LINE"
);
}
);
width = 377;
}
);
unicode = 0027;
},
{
color = 1;
glyphname = semicolon;
lastChange = "2016-10-17 08:59:04 +0000";
layers = (
{
layerId = "262880E7-CFE1-4BDA-902E-E24798F3240A";
paths = (
{
closed = 1;
nodes = (
"228 370 OFFCURVE",
"247 388 OFFCURVE",
"247 411 CURVE",
"247 433 OFFCURVE",
"228 451 OFFCURVE",
"206 451 CURVE SMOOTH",
"184 451 OFFCURVE",
"165 433 OFFCURVE",
"165 411 CURVE SMOOTH",
"165 388 OFFCURVE",
"183 370 OFFCURVE",
"206 370 CURVE SMOOTH"
);
},
{
closed = 1;
nodes = (
"186 -60 LINE",
"222 147 LINE",
"200 147 LINE",
"165 -60 LINE"
);
}
);
width = 406;
},
{
layerId = "4F25946F-63AC-42D6-8D55-01CF6A99025B";
paths = (
{
closed = 1;
nodes = (
"184 288 OFFCURVE",
"233 334 OFFCURVE",
"233 393 CURVE",
"233 450 OFFCURVE",
"184 496 OFFCURVE",
"127 496 CURVE SMOOTH",
"70 496 OFFCURVE",
"21 450 OFFCURVE",
"21 393 CURVE SMOOTH",
"21 334 OFFCURVE",
"68 288 OFFCURVE",
"127 288 CURVE SMOOTH"
);
},
{
closed = 1;
nodes = (
"168 -46 LINE",
"219 183 LINE",
"49 182 LINE",
"30 -46 LINE"
);
}
);
width = 248;
},
{
layerId = "6256A6A1-72B9-4ADD-8383-8893F8BF5D61";
paths = (
{
closed = 1;
nodes = (
"232 326 OFFCURVE",
"267 359 OFFCURVE",
"267 401 CURVE",
"267 442 OFFCURVE",
"232 475 OFFCURVE",
"191 475 CURVE SMOOTH",
"150 475 OFFCURVE",
"115 442 OFFCURVE",
"115 401 CURVE SMOOTH",
"115 359 OFFCURVE",
"148 326 OFFCURVE",
"191 326 CURVE SMOOTH"
);
},
{
closed = 1;
nodes = (
"203 -52 LINE",
"248 166 LINE",
"146 166 LINE",
"120 -52 LINE"
);
}
);
width = 378;
}
);
unicode = 003B;
},
{
color = 1;
glyphname = slash;
lastChange = "2016-10-17 08:59:03 +0000";
layers = (
{
layerId = "262880E7-CFE1-4BDA-902E-E24798F3240A";
paths = (
{
closed = 1;
nodes = (
"121 0 LINE",
"259 700 LINE",
"237 700 LINE",
"99 0 LINE"
);
}
);
width = 358;
},
{
layerId = "4F25946F-63AC-42D6-8D55-01CF6A99025B";
paths = (
{
closed = 1;
nodes = (
"169 0 LINE",
"307 700 LINE",
"105 700 LINE",
"-33 0 LINE"
);
}
);
width = 274;
},
{
layerId = "6256A6A1-72B9-4ADD-8383-8893F8BF5D61";
paths = (
{
closed = 1;
nodes = (
"167 0 LINE",
"305 700 LINE",
"187 700 LINE",
"49 0 LINE"
);
}
);
width = 354;
}
);
unicode = 002F;
},
{
color = 1;
glyphname = quotesingle.alt;
lastChange = "2016-10-17 08:59:03 +0000";
layers = (
{
layerId = "262880E7-CFE1-4BDA-902E-E24798F3240A";
paths = (
{
closed = 1;
nodes = (
"209 699 LINE",
"187 699 LINE",
"187 507 LINE",
"209 507 LINE"
);
}
);
width = 396;
},
{
layerId = "4F25946F-63AC-42D6-8D55-01CF6A99025B";
paths = (
{
closed = 1;
nodes = (
"231 603 LINE",
"47 603 LINE",
"38 344 LINE",
"169 344 LINE"
);
}
);
width = 244;
},
{
layerId = "6256A6A1-72B9-4ADD-8383-8893F8BF5D61";
paths = (
{
closed = 1;
nodes = (
"249 648 LINE",
"140 648 LINE",
"135 420 LINE",
"216 420 LINE"
);
}
);
width = 370;
}
);
},
{
color = 1;
glyphname = emdash;
lastChange = "2016-10-17 08:59:05 +0000";
layers = (
{
layerId = "262880E7-CFE1-4BDA-902E-E24798F3240A";
paths = (
{
closed = 1;
nodes = (
"542 251 LINE",
"542 272 LINE",
"134 272 LINE",
"134 251 LINE"
);
}
);
width = 676;
},
{
layerId = "4F25946F-63AC-42D6-8D55-01CF6A99025B";
paths = (
{
closed = 1;
nodes = (
"630 180 LINE",
"630 368 LINE",
"30 368 LINE",
"30 180 LINE"
);
}
);
width = 660;
},
{
layerId = "6256A6A1-72B9-4ADD-8383-8893F8BF5D61";
paths = (
{
closed = 1;
nodes = (
"595 213 LINE",
"595 323 LINE",
"84 323 LINE",
"84 213 LINE"
);
}
);
width = 679;
}
);
unicode = 2014;
},
{
color = 1;
glyphname = hyphen;
lastChange = "2016-10-17 08:59:04 +0000";
layers = (
{
layerId = "4F25946F-63AC-42D6-8D55-01CF6A99025B";
paths = (
{
closed = 1;
nodes = (
"310 180 LINE",
"310 368 LINE",
"30 368 LINE",
"30 180 LINE"
);
}
);
width = 340;
},
{
layerId = "262880E7-CFE1-4BDA-902E-E24798F3240A";
paths = (
{
closed = 1;
nodes = (
"392 251 LINE",
"392 272 LINE",
"134 272 LINE",
"134 251 LINE"
);
}
);
width = 526;
},
{
layerId = "6256A6A1-72B9-4ADD-8383-8893F8BF5D61";
paths = (
{
closed = 1;
nodes = (
"354 213 LINE",
"354 323 LINE",
"84 323 LINE",
"84 213 LINE"
);
}
);
width = 438;
}
);
unicode = 002D;
},
{
color = 1;
glyphname = dollar;
lastChange = "2016-10-17 08:59:04 +0000";
layers = (
{
layerId = "4F25946F-63AC-42D6-8D55-01CF6A99025B";
paths = (
{
closed = 1;
nodes = (
"415 -10 OFFCURVE",
"509 74 OFFCURVE",
"509 200 CURVE SMOOTH",
"509 312 OFFCURVE",
"435 381 OFFCURVE",
"322 425 CURVE SMOOTH",
"276 443 OFFCURVE",
"223 456 OFFCURVE",
"223 489 CURVE SMOOTH",
"223 503 OFFCURVE",
"233 518 OFFCURVE",
"257 518 CURVE SMOOTH",
"283 518 OFFCURVE",
"298 501 OFFCURVE",
"298 479 CURVE SMOOTH",
"298 464 LINE",
"510 474 LINE",
"510 479 LINE SMOOTH",
"510 617 OFFCURVE",
"403 710 OFFCURVE",
"251 710 CURVE SMOOTH",
"104 710 OFFCURVE",
"8 624 OFFCURVE",
"8 498 CURVE SMOOTH",
"8 389 OFFCURVE",
"81 318 OFFCURVE",
"195 275 CURVE SMOOTH",
"237 259 OFFCURVE",
"293 245 OFFCURVE",
"293 214 CURVE SMOOTH",
"293 201 OFFCURVE",
"284 182 OFFCURVE",
"258 182 CURVE SMOOTH",
"234 182 OFFCURVE",
"219 199 OFFCURVE",
"219 231 CURVE SMOOTH",
"219 236 LINE",
"-4 226 LINE",
"-4 221 LINE SMOOTH",
"-4 83 OFFCURVE",
"102 -10 OFFCURVE",
"262 -10 CURVE SMOOTH"
);
},
{
closed = 1;
nodes = (
"333 -53 LINE",
"333 93 LINE",
"212 93 LINE",
"212 -53 LINE"
);
},
{
closed = 1;
nodes = (
"330 599 LINE",
"330 745 LINE",
"209 745 LINE",
"209 599 LINE"
);
}
);
width = 511;
},
{
layerId = "262880E7-CFE1-4BDA-902E-E24798F3240A";
paths = (
{
closed = 1;
nodes = (
"444 -9 OFFCURVE",
"508 50 OFFCURVE",
"508 149 CURVE SMOOTH",
"508 255 OFFCURVE",
"435 307 OFFCURVE",
"353 361 CURVE SMOOTH",
"272 414 OFFCURVE",
"208 459 OFFCURVE",
"208 552 CURVE SMOOTH",
"208 636 OFFCURVE",
"260 690 OFFCURVE",
"344 690 CURVE SMOOTH",
"428 690 OFFCURVE",
"480 637 OFFCURVE",
"480 550 CURVE SMOOTH",
"480 500 LINE",
"502 500 LINE",
"502 550 LINE SMOOTH",
"502 650 OFFCURVE",
"442 709 OFFCURVE",
"344 709 CURVE SMOOTH",
"246 709 OFFCURVE",
"186 649 OFFCURVE",
"186 553 CURVE SMOOTH",
"186 446 OFFCURVE",
"261 394 OFFCURVE",
"339 342 CURVE SMOOTH",
"416 291 OFFCURVE",
"486 244 OFFCURVE",
"486 148 CURVE SMOOTH",
"486 63 OFFCURVE",
"430 11 OFFCURVE",
"348 11 CURVE SMOOTH",
"260 11 OFFCURVE",
"214 64 OFFCURVE",
"214 150 CURVE SMOOTH",
"214 200 LINE",
"192 200 LINE",
"192 150 LINE SMOOTH",
"192 50 OFFCURVE",
"247 -9 OFFCURVE",
"349 -9 CURVE SMOOTH"
);
},
{
closed = 1;
nodes = (
"354 -88 LINE",
"354 2 LINE",
"331 2 LINE",
"331 -88 LINE"
);
},
{
closed = 1;
nodes = (
"354 702 LINE",
"354 792 LINE",
"331 792 LINE",
"331 702 LINE"
);
}
);
width = 694;
},
{
associatedMasterId = "4F25946F-63AC-42D6-8D55-01CF6A99025B";
layerId = "E869EA52-1DFA-43F8-82AD-AF9382669512";
name = "DemiBold{119,100}";
paths = (
{
closed = 1;
nodes = (
"387 -10 OFFCURVE",
"467 63 OFFCURVE",
"467 176 CURVE SMOOTH",
"467 286 OFFCURVE",
"394 347 OFFCURVE",
"295 395 CURVE SMOOTH",
"233 430 OFFCURVE",
"175 457 OFFCURVE",
"175 518 CURVE SMOOTH",
"175 565 OFFCURVE",
"204 598 OFFCURVE",
"256 598 CURVE SMOOTH",
"309 598 OFFCURVE",
"341 564 OFFCURVE",
"341 512 CURVE SMOOTH",
"341 481 LINE",
"465 486 LINE",
"465 512 LINE SMOOTH",
"465 632 OFFCURVE",
"380 710 OFFCURVE",
"253 710 CURVE SMOOTH",
"129 710 OFFCURVE",
"49 636 OFFCURVE",
"49 524 CURVE SMOOTH",
"49 415 OFFCURVE",
"123 353 OFFCURVE",
"221 306 CURVE SMOOTH",
"279 274 OFFCURVE",
"341 245 OFFCURVE",
"341 183 CURVE SMOOTH",
"341 137 OFFCURVE",
"311 103 OFFCURVE",
"259 103 CURVE SMOOTH",
"205 103 OFFCURVE",
"176 136 OFFCURVE",
"176 193 CURVE SMOOTH",
"176 219 LINE",
"46 214 LINE",
"46 188 LINE SMOOTH",
"46 68 OFFCURVE",
"128 -10 OFFCURVE",
"261 -10 CURVE SMOOTH"
);
},
{
closed = 1;
nodes = (
"306 -80 LINE",
"306 40 LINE",
"203 40 LINE",
"203 -80 LINE"
);
},
{
closed = 1;
nodes = (
"309 652 LINE",
"309 777 LINE",
"205 777 LINE",
"205 652 LINE"
);
}
);
width = 513;
},
{
layerId = "6256A6A1-72B9-4ADD-8383-8893F8BF5D61";
paths = (
{
closed = 1;
nodes = (
"527 -10 OFFCURVE",
"607 63 OFFCURVE",
"607 176 CURVE SMOOTH",
"607 286 OFFCURVE",
"534 347 OFFCURVE",
"435 395 CURVE SMOOTH",
"373 430 OFFCURVE",
"315 457 OFFCURVE",
"315 518 CURVE SMOOTH",
"315 565 OFFCURVE",
"344 598 OFFCURVE",
"396 598 CURVE SMOOTH",
"449 598 OFFCURVE",
"481 564 OFFCURVE",
"481 512 CURVE SMOOTH",
"481 481 LINE",
"605 486 LINE",
"605 512 LINE SMOOTH",
"605 632 OFFCURVE",
"520 710 OFFCURVE",
"393 710 CURVE SMOOTH",
"269 710 OFFCURVE",
"189 636 OFFCURVE",
"189 524 CURVE SMOOTH",
"189 415 OFFCURVE",
"263 353 OFFCURVE",
"361 306 CURVE SMOOTH",
"419 274 OFFCURVE",
"481 245 OFFCURVE",
"481 183 CURVE SMOOTH",
"481 137 OFFCURVE",
"451 103 OFFCURVE",
"399 103 CURVE SMOOTH",
"345 103 OFFCURVE",
"316 136 OFFCURVE",
"316 193 CURVE SMOOTH",
"316 219 LINE",
"186 214 LINE",
"186 188 LINE SMOOTH",
"186 68 OFFCURVE",
"268 -10 OFFCURVE",
"401 -10 CURVE SMOOTH"
);
},
{
closed = 1;
nodes = (
"446 -80 LINE",
"446 40 LINE",
"343 40 LINE",
"343 -80 LINE"
);
},
{
closed = 1;
nodes = (
"449 652 LINE",
"449 777 LINE",
"345 777 LINE",
"345 652 LINE"
);
}
);
width = 794;
}
);
unicode = 0024;
},
{
color = 1;
glyphname = at;
lastChange = "2016-10-17 08:59:03 +0000";
layers = (
{
layerId = "262880E7-CFE1-4BDA-902E-E24798F3240A";
paths = (
{
closed = 1;
nodes = (
"733 -68 OFFCURVE",
"895 92 OFFCURVE",
"895 290 CURVE SMOOTH",
"895 488 OFFCURVE",
"733 648 OFFCURVE",
"534 648 CURVE SMOOTH",
"335 648 OFFCURVE",
"173 488 OFFCURVE",
"173 290 CURVE SMOOTH",
"173 92 OFFCURVE",
"335 -68 OFFCURVE",
"534 -68 CURVE SMOOTH"
);
},
{
closed = 1;
nodes = (
"347 -50 OFFCURVE",
"195 102 OFFCURVE",
"195 290 CURVE SMOOTH",
"195 478 OFFCURVE",
"347 630 OFFCURVE",
"534 630 CURVE SMOOTH",
"721 630 OFFCURVE",
"873 478 OFFCURVE",
"873 290 CURVE SMOOTH",
"873 102 OFFCURVE",
"721 -50 OFFCURVE",
"534 -50 CURVE SMOOTH"
);
},
{
closed = 1;
nodes = (
"600 105 OFFCURVE",
"644 152 OFFCURVE",
"644 227 CURVE SMOOTH",
"644 369 LINE SMOOTH",
"644 444 OFFCURVE",
"600 491 OFFCURVE",
"528 491 CURVE SMOOTH",
"455 491 OFFCURVE",
"407 445 OFFCURVE",
"407 370 CURVE SMOOTH",
"407 226 LINE SMOOTH",
"407 151 OFFCURVE",
"455 105 OFFCURVE",
"528 105 CURVE SMOOTH"
);
},
{
closed = 1;
nodes = (
"463 121 OFFCURVE",
"424 161 OFFCURVE",
"424 226 CURVE SMOOTH",
"424 370 LINE SMOOTH",
"424 435 OFFCURVE",
"465 475 OFFCURVE",
"528 475 CURVE SMOOTH",
"592 475 OFFCURVE",
"633 435 OFFCURVE",
"633 370 CURVE SMOOTH",
"633 226 LINE SMOOTH",
"633 161 OFFCURVE",
"594 121 OFFCURVE",
"528 121 CURVE SMOOTH"
);
},
{
closed = 1;
nodes = (
"649 110 LINE",
"649 486 LINE",
"633 486 LINE",
"633 110 LINE"
);
}
);
width = 1068;
},
{
layerId = "4F25946F-63AC-42D6-8D55-01CF6A99025B";
paths = (
{
closed = 1;
nodes = (
"551 -53 OFFCURVE",
"713 108 OFFCURVE",
"713 306 CURVE SMOOTH",
"713 504 OFFCURVE",
"551 665 OFFCURVE",
"353 665 CURVE SMOOTH",
"155 665 OFFCURVE",
"-7 504 OFFCURVE",
"-7 306 CURVE SMOOTH",
"-7 108 OFFCURVE",
"155 -53 OFFCURVE",
"353 -53 CURVE SMOOTH"
);
},
{
closed = 1;
nodes = (
"218 69 OFFCURVE",
"118 170 OFFCURVE",
"118 306 CURVE SMOOTH",
"118 442 OFFCURVE",
"218 543 OFFCURVE",
"353 543 CURVE SMOOTH",
"488 543 OFFCURVE",
"588 442 OFFCURVE",
"588 306 CURVE SMOOTH",
"588 170 OFFCURVE",
"488 69 OFFCURVE",
"353 69 CURVE SMOOTH"
);
},
{
closed = 1;
nodes = (
"374 176 OFFCURVE",
"417 236 OFFCURVE",
"417 283 CURVE SMOOTH",
"417 290 LINE SMOOTH",
"417 295 OFFCURVE",
"409 419 OFFCURVE",
"317 419 CURVE",
"262 419 OFFCURVE",
"229 392 OFFCURVE",
"229 345 CURVE SMOOTH",
"229 255 LINE SMOOTH",
"229 213 OFFCURVE",
"254 176 OFFCURVE",
"310 176 CURVE SMOOTH"
);
},
{
closed = 1;
nodes = (
"335 258 OFFCURVE",
"327 265 OFFCURVE",
"327 277 CURVE SMOOTH",
"327 320 LINE SMOOTH",
"327 332 OFFCURVE",
"335 340 OFFCURVE",
"347 340 CURVE SMOOTH",
"359 340 OFFCURVE",
"368 332 OFFCURVE",
"368 320 CURVE SMOOTH",
"368 277 LINE SMOOTH",
"368 265 OFFCURVE",
"359 258 OFFCURVE",
"347 258 CURVE SMOOTH"
);
},
{
closed = 1;
nodes = (
"466 180 LINE",
"466 416 LINE",
"368 416 LINE",
"368 180 LINE"
);
}
);
width = 706;
},
{
layerId = "6256A6A1-72B9-4ADD-8383-8893F8BF5D61";
paths = (
{
closed = 1;
nodes = (
"682 -60 OFFCURVE",
"844 101 OFFCURVE",
"844 299 CURVE SMOOTH",
"844 497 OFFCURVE",
"682 657 OFFCURVE",
"483 657 CURVE SMOOTH",
"285 657 OFFCURVE",
"123 497 OFFCURVE",
"123 299 CURVE SMOOTH",
"123 101 OFFCURVE",
"285 -60 OFFCURVE",
"483 -60 CURVE SMOOTH"
);
},
{
closed = 1;
nodes = (
"324 14 OFFCURVE",
"200 138 OFFCURVE",
"200 299 CURVE SMOOTH",
"200 459 OFFCURVE",
"324 583 OFFCURVE",
"483 583 CURVE SMOOTH",
"642 583 OFFCURVE",
"766 459 OFFCURVE",
"766 299 CURVE SMOOTH",
"766 138 OFFCURVE",
"642 14 OFFCURVE",
"483 14 CURVE SMOOTH"
);
},
{
closed = 1;
nodes = (
"525 143 OFFCURVE",
"568 197 OFFCURVE",
"568 257 CURVE SMOOTH",
"568 327 LINE SMOOTH",
"568 364 OFFCURVE",
"544 452 OFFCURVE",
"461 452 CURVE SMOOTH",
"398 452 OFFCURVE",
"358 417 OFFCURVE",
"358 357 CURVE SMOOTH",
"358 242 LINE SMOOTH",
"358 184 OFFCURVE",
"393 143 OFFCURVE",
"457 143 CURVE SMOOTH"
);
},
{
closed = 1;
nodes = (
"441 194 OFFCURVE",
"418 217 OFFCURVE",
"418 253 CURVE SMOOTH",
"418 343 LINE SMOOTH",
"418 380 OFFCURVE",
"442 403 OFFCURVE",
"477 403 CURVE SMOOTH",
"513 403 OFFCURVE",
"537 380 OFFCURVE",
"537 343 CURVE SMOOTH",
"537 253 LINE SMOOTH",
"537 217 OFFCURVE",
"514 194 OFFCURVE",
"477 194 CURVE SMOOTH"
);
},
{
closed = 1;
nodes = (
"597 148 LINE",
"597 448 LINE",
"537 448 LINE",
"537 148 LINE"
);
}
);
width = 967;
}
);
unicode = 0040;
},
{
color = 1;
glyphname = copyright;
lastChange = "2016-10-17 08:59:04 +0000";
layers = (
{
layerId = "262880E7-CFE1-4BDA-902E-E24798F3240A";
paths = (
{
closed = 1;
nodes = (
"733 -68 OFFCURVE",
"895 92 OFFCURVE",
"895 290 CURVE SMOOTH",
"895 488 OFFCURVE",
"733 648 OFFCURVE",
"534 648 CURVE SMOOTH",
"335 648 OFFCURVE",
"173 488 OFFCURVE",
"173 290 CURVE SMOOTH",
"173 92 OFFCURVE",
"335 -68 OFFCURVE",
"534 -68 CURVE SMOOTH"
);
},
{
closed = 1;
nodes = (
"347 -50 OFFCURVE",
"195 102 OFFCURVE",
"195 290 CURVE SMOOTH",
"195 478 OFFCURVE",
"347 630 OFFCURVE",
"534 630 CURVE SMOOTH",
"721 630 OFFCURVE",
"873 478 OFFCURVE",
"873 290 CURVE SMOOTH",
"873 102 OFFCURVE",
"721 -50 OFFCURVE",
"534 -50 CURVE SMOOTH"
);
},
{
closed = 1;
nodes = (
"606 103 OFFCURVE",
"652 148 OFFCURVE",
"652 223 CURVE SMOOTH",
"652 225 LINE",
"636 225 LINE",
"636 223 LINE SMOOTH",
"636 158 OFFCURVE",
"597 118 OFFCURVE",
"531 118 CURVE SMOOTH",
"466 118 OFFCURVE",
"427 158 OFFCURVE",
"427 223 CURVE SMOOTH",
"427 367 LINE SMOOTH",
"427 433 OFFCURVE",
"468 472 OFFCURVE",
"531 472 CURVE SMOOTH",
"595 472 OFFCURVE",
"636 433 OFFCURVE",
"636 367 CURVE SMOOTH",
"636 366 LINE",
"652 366 LINE",
"652 367 LINE SMOOTH",
"652 442 OFFCURVE",
"606 487 OFFCURVE",
"531 487 CURVE SMOOTH",
"457 487 OFFCURVE",
"410 442 OFFCURVE",
"410 367 CURVE SMOOTH",
"410 223 LINE SMOOTH",
"410 148 OFFCURVE",
"457 103 OFFCURVE",
"531 103 CURVE SMOOTH"
);
}
);
width = 1068;
},
{
layerId = "4F25946F-63AC-42D6-8D55-01CF6A99025B";
paths = (
{
closed = 1;
nodes = (
"551 -53 OFFCURVE",
"713 108 OFFCURVE",
"713 306 CURVE SMOOTH",
"713 504 OFFCURVE",
"551 665 OFFCURVE",
"353 665 CURVE SMOOTH",
"155 665 OFFCURVE",
"-7 504 OFFCURVE",
"-7 306 CURVE SMOOTH",
"-7 108 OFFCURVE",
"155 -53 OFFCURVE",
"353 -53 CURVE SMOOTH"
);
},
{
closed = 1;
nodes = (
"218 69 OFFCURVE",
"118 170 OFFCURVE",
"118 306 CURVE SMOOTH",
"118 442 OFFCURVE",
"218 543 OFFCURVE",
"353 543 CURVE SMOOTH",
"488 543 OFFCURVE",
"588 442 OFFCURVE",
"588 306 CURVE SMOOTH",
"588 170 OFFCURVE",
"488 69 OFFCURVE",
"353 69 CURVE SMOOTH"
);
},
{
closed = 1;
nodes = (
"425 170 OFFCURVE",
"473 214 OFFCURVE",
"478 290 CURVE",
"478 291 LINE",
"373 291 LINE",
"373 277 LINE SMOOTH",
"373 265 OFFCURVE",
"364 257 OFFCURVE",
"351 257 CURVE SMOOTH",
"338 257 OFFCURVE",
"329 265 OFFCURVE",
"329 277 CURVE",
"329 323 LINE",
"329 336 OFFCURVE",
"338 344 OFFCURVE",
"351 344 CURVE SMOOTH",
"364 344 OFFCURVE",
"373 336 OFFCURVE",
"373 323 CURVE",
"373 313 LINE",
"478 313 LINE",
"478 314 LINE",
"477 386 OFFCURVE",
"430 428 OFFCURVE",
"350 428 CURVE SMOOTH",
"270 428 OFFCURVE",
"223 382 OFFCURVE",
"223 302 CURVE SMOOTH",
"223 298 LINE SMOOTH",
"223 217 OFFCURVE",
"270 170 OFFCURVE",
"350 170 CURVE SMOOTH"
);
}
);
width = 706;
},
{
layerId = "6256A6A1-72B9-4ADD-8383-8893F8BF5D61";
paths = (
{
closed = 1;
nodes = (
"682 -60 OFFCURVE",
"844 101 OFFCURVE",
"844 299 CURVE SMOOTH",
"844 497 OFFCURVE",
"682 657 OFFCURVE",
"483 657 CURVE SMOOTH",
"285 657 OFFCURVE",
"123 497 OFFCURVE",
"123 299 CURVE SMOOTH",
"123 101 OFFCURVE",
"285 -60 OFFCURVE",
"483 -60 CURVE SMOOTH"
);
},
{
closed = 1;
nodes = (
"324 14 OFFCURVE",
"200 138 OFFCURVE",
"200 299 CURVE SMOOTH",
"200 459 OFFCURVE",
"324 583 OFFCURVE",
"483 583 CURVE SMOOTH",
"642 583 OFFCURVE",
"766 459 OFFCURVE",
"766 299 CURVE SMOOTH",
"766 138 OFFCURVE",
"642 14 OFFCURVE",
"483 14 CURVE SMOOTH"
);
},
{
closed = 1;
nodes = (
"555 139 OFFCURVE",
"605 183 OFFCURVE",
"605 259 CURVE SMOOTH",
"605 260 LINE",
"541 260 LINE",
"541 252 LINE SMOOTH",
"541 215 OFFCURVE",
"518 193 OFFCURVE",
"481 193 CURVE SMOOTH",
"444 193 OFFCURVE",
"421 215 OFFCURVE",
"421 252 CURVE SMOOTH",
"421 343 LINE SMOOTH",
"421 381 OFFCURVE",
"445 403 OFFCURVE",
"481 403 CURVE SMOOTH",
"517 403 OFFCURVE",
"541 381 OFFCURVE",
"541 343 CURVE SMOOTH",
"541 338 LINE",
"605 338 LINE",
"605 339 LINE SMOOTH",
"605 412 OFFCURVE",
"558 455 OFFCURVE",
"480 455 CURVE SMOOTH",
"403 455 OFFCURVE",
"356 410 OFFCURVE",
"356 332 CURVE SMOOTH",
"356 263 LINE SMOOTH",
"356 185 OFFCURVE",
"403 139 OFFCURVE",
"480 139 CURVE SMOOTH"
);
}
);
width = 967;
}
);
unicode = 00A9;
},
{
color = 1;
glyphname = registered;
lastChange = "2016-10-17 08:59:03 +0000";
layers = (
{
layerId = "262880E7-CFE1-4BDA-902E-E24798F3240A";
paths = (
{
closed = 1;
nodes = (
"733 -68 OFFCURVE",
"895 92 OFFCURVE",
"895 290 CURVE SMOOTH",
"895 488 OFFCURVE",
"733 648 OFFCURVE",
"534 648 CURVE SMOOTH",
"335 648 OFFCURVE",
"173 488 OFFCURVE",
"173 290 CURVE SMOOTH",
"173 92 OFFCURVE",
"335 -68 OFFCURVE",
"534 -68 CURVE SMOOTH"
);
},
{
closed = 1;
nodes = (
"347 -50 OFFCURVE",
"195 102 OFFCURVE",
"195 290 CURVE SMOOTH",
"195 478 OFFCURVE",
"347 630 OFFCURVE",
"534 630 CURVE SMOOTH",
"721 630 OFFCURVE",
"873 478 OFFCURVE",
"873 290 CURVE SMOOTH",
"873 102 OFFCURVE",
"721 -50 OFFCURVE",
"534 -50 CURVE SMOOTH"
);
},
{
closed = 1;
nodes = (
"473 104 LINE",
"473 488 LINE",
"545 488 LINE SMOOTH",
"601 488 OFFCURVE",
"636 452 OFFCURVE",
"636 393 CURVE SMOOTH",
"636 334 OFFCURVE",
"601 298 OFFCURVE",
"545 298 CURVE SMOOTH",
"470 298 LINE",
"470 286 LINE",
"545 286 LINE SMOOTH",
"608 286 OFFCURVE",
"648 327 OFFCURVE",
"648 393 CURVE SMOOTH",
"648 459 OFFCURVE",
"608 499 OFFCURVE",
"545 499 CURVE SMOOTH",
"460 499 LINE",
"460 104 LINE"
);
},
{
closed = 1;
nodes = (
"622 104 LINE",
"557 296 LINE",
"546 292 LINE",
"609 104 LINE"
);
}
